<svg xmlns="http://www.w3.org/2000/svg" viewBox="0 0 500 500"><g id="freepik--background-complete--inject-201"><path d="M20.08,301.41c1.07,5.65,13.24,98.93,13.24,98.93l44.57,22.72L74,362.23Z" style="fill:#ebebeb"></path><path d="M427.17,356.4l12.33,87.78,3.2.1C440.66,414.47,438.48,384.06,427.17,356.4Z" style="fill:#e0e0e0"></path><path d="M461.4,352.29c-8.61,9.43-12.07,22.41-14.25,35-3.09,17.85-3.37,38.92-2.45,57l4.5.1A247.65,247.65,0,0,1,461.4,352.29Z" style="fill:#e0e0e0"></path><path d="M429.43,408.33c-1-4.35-2.12-8.77-4.6-12.47-3.35-5-8.82-8.17-14.31-10.64s-11.28-4.43-16.25-7.84c5.54,9.09,18.12,11.51,24.53,20,3.18,4.23,4.51,9.54,5.75,14.68,2.73,11.22,4.4,20.93,7.13,32.15h3.64A286.67,286.67,0,0,0,429.43,408.33Z" style="fill:#e0e0e0"></path><path d="M452.49,444.28s3.08-34.86,5.37-41.26,23.93-24.08,23.72-23.25S465.35,400,463.06,403.9s-6.24,40.38-6.24,40.38Z" style="fill:#e0e0e0"></path><path d="M477.25,482.25l-5.59-33-57.29-32-38.43,15.12-6.76,10.95a50,50,0,0,1-16.34,16.26c-8.22,5.06-21,14.51-25,22.61Z" style="fill:#e0e0e0"></path><path d="M419.07,77.36c2,1.66,16.67,21.18,16.67,21.18l30.6-4.37V61.9L429.4,36.19Z" style="fill:#fafafa"></path><polygon points="107.18 58.36 120.08 91.18 163.68 106.02 190.82 71.32 161.9 28.71 119.19 32.23 107.18 58.36" style="fill:#fafafa"></polygon><polygon points="336.79 102.47 349.69 135.29 393.29 150.14 420.43 115.43 391.51 72.82 348.8 76.34 336.79 102.47" style="fill:#ebebeb"></polygon><polygon points="275.59 73.77 293.79 70.14 305.54 48.94 290.09 31.66 265.33 42.67 263.17 65.12 275.59 73.77" style="fill:#f5f5f5"></polygon><polygon points="130.83 171.14 145.03 158.24 142.44 117.43 97.28 92.25 58.8 133.24 66.76 151.86 46.59 163.74 44.17 189.32 77.33 194.03 83.53 170.3 109.83 173.64 130.83 171.14" style="fill:#ebebeb"></polygon><path d="M436.23,144.86c-3.35,1.82-20.14,21.32-20.14,21.32l37.69,86.17-3-63.48Z" style="fill:#f5f5f5"></path><polygon points="67.97 98.54 97.57 73.77 89.28 43.02 50.34 48.68 50.34 86.39 67.97 98.54" style="fill:#fafafa"></polygon><polyline points="424.33 315.1 442.7 296.4 477.25 301.04 481.58 322.07 446.74 338.06 422.58 315.1" style="fill:#fafafa"></polyline></g><g id="freepik--Cave--inject-201"><polygon points="85 353.18 118.75 353.18 151.1 410.85 158.14 438.99 227.06 446.02 265.04 416.48 325.52 406.63 383.19 370.06 412.73 343.34 412.73 316.61 443.67 288.48 463.36 288.48 440.86 274.42 400.56 171.05 331.35 144.37 304.42 87.34 248.16 87.34 240.88 56.4 224.25 45.15 206.94 12.2 210.18 49.37 203.15 80.31 201.74 109.85 156.73 133.76 158.14 168.92 137.04 187.21 97.65 184.4 85 222.04 39.98 246.28 39.98 281.45 69.52 332.09 85 353.18" style="fill:#e0e0e0"></polygon><path d="M211.6,177.78l-9,35.86-11.24-23.4-9.59,122.62L198.57,343l16.78-11.64s4.8,34.94,6.85,36.31,22.61,13,22.61,13l15.07-8.22h16.44l29.46-12.33L311.26,330l9.59-13,8.22,6.85,4.11,15.76,10.28-13,6.85-19.86L338,267.91s-5.48,11.91-9.6,0-6.16-37.26-6.16-37.26l-10.28-32.88-13,17.81-5.48,9.59-8.91-13-2.05-18.5-3.43-17.81-13-5.48v19.87l-6.16,11-12.33-14.39-2.74-13v-11l-15.07,20.55Z" style="fill:#ebebeb"></path><path d="M157.89,438l20.86-41.2-28.56-19.43-17.14-24-5.14-1.71s-1.71-83.4,1.15-93.69,8-23.42,14.28-14.85,12.44,26.56,16.44,19.71,10.41-48.27,10.41-48.27l8.56-39.42V135.74s17.12,42.85,21,44.5c3.41,1.47,4.17-46.27,4.17-46.27L209,116l7.25-39.45s2.92,38,6.33,42.86,8.77,9.74,10.72,10.72,5.35-22.41,5.35-24.84V92.09s9.91,55.52,13,51.14,3.09-20.95,3.09-20.95V97l7.79-5.36,27.27,3.9,24.36,25.81s16.07,73.06,19.48,67.7,8.77-32.63,8.77-32.63l23.38,28.25,4.38,130-12.41,71.51,22.14-14.05,32.81-28.79V316.61L393.57,194.86l7-23.81-69.21-26.68-26.93-57H248.16L240.88,56.4,224.25,45.15,206.94,12.2l3.24,37.17-7,30.94-1.41,29.54-45,23.91,1.41,35.16L137,187.21,97.65,184.4,85,222l2.34,10.81L85,353.18h33.75l32.35,57.67Z" style="fill:#ebebeb"></path><polygon points="265.04 416.48 268.14 398.69 293.99 398.95 290.93 388.9 291.07 375.18 300 378.96 311.13 397 297.11 352.03 297.3 333.03 308.49 322.07 329.97 337.59 342.62 390.36 342.81 371.49 347.67 360.46 352.93 362.62 360.94 384.17 325.52 406.63 265.04 416.48" style="fill:#f5f5f5"></polygon><path d="M265,416.48l60.45-10-.07,0,35.4-22.5-.09.27-8-21.55.13.14-5.25-2.16.31-.13c-1.51,3.45-3.17,7.21-4.85,11l0-.1c-.06,5.95-.13,12.35-.19,18.87l0,2.05-.48-2c-3.66-15.25-7.53-31.4-11.52-48l-1.14-4.76.1.15-21.47-15.52.33,0q-5.67,5.56-11.19,11l.07-.18q-.09,9.69-.2,19V352c5,16.06,9.7,31.14,14,45l.52,1.67-.91-1.48-11.12-18.05.09.08-8.93-3.8.27-.17c-.06,4.84-.11,9.4-.16,13.72v0c1.11,3.64,2.1,6.93,3.05,10.06l.06.2H294l-25.85-.32.1-.08L265,416.48s0-.38.18-1.14l.57-3.41c.51-3,1.27-7.49,2.25-13.26v-.09h.09l25.85.21-.15.21c-1-3.13-2-6.41-3.08-10.05v-.06c0-4.32.08-8.87.13-13.71v-.29l.26.11,8.94,3.78.05,0,0,.06,11.15,18-.4.18c-4.32-13.84-9-28.92-14.05-45V352q.09-9.28.19-19v-.1l.07-.08,11.19-11,.16-.15.17.13,21.48,15.52.08.05,0,.1,1.14,4.76c4,16.61,7.85,32.76,11.5,48l-.5.05c.07-6.51.14-12.91.2-18.87v-.05l0,0,4.87-11,.1-.22.21.09L353,362.4l.09,0,0,.1,8,21.55.06.17-.15.1-35.44,22.43,0,0h0l-44.4,7.12-12,1.91-3.09.49Z" style="fill:#263238"></path><polyline points="141.94 394.52 147.06 381.18 151.46 379.42 155.42 388.67 155.42 407.61 166.44 360.48 184.5 347.7 193.75 356.95 193.75 372.81 180.53 412.01 191.1 395.27 198.59 392.19 198.59 403.64 195.95 412.01 217.53 412.01 221.5 435.8 237.76 437.69 227.06 446.02 158.14 438.99 151.1 410.85 141.94 394.52" style="fill:#fafafa"></polyline><path d="M85,353.18,69.47,332.13h0L39.88,281.51l0,0v0c0-10.52,0-22.38,0-35.16v-.09l.08,0,45-24.26-.08.09,12.65-37.65,0-.14h.15l39.38,2.8-.14.05L158,168.77l-.07.16c-.44-10.87-.92-22.87-1.42-35.16v-.14l.12-.06,45-23.92-.12.19c.43-9.12.92-19.26,1.4-29.54v0c2.17-9.59,4.58-20.19,7-30.95v.08c-1-11.57-2.12-24.28-3.25-37.17l-.1-1.21.57,1.08c5.4,10.27,11.31,21.54,17.31,32.94l-.08-.09L241,56.19l.08.05,0,.1c2.28,9.68,4.77,20.26,7.28,30.94l-.24-.19h56.42l.07.15,26.94,57-.14-.14L352,152.06l48.62,18.75.11,0,0,.1c13.8,35.4,27.26,70,40.29,103.37l-.1-.12,22.5,14.07.75.46H443.67l.17-.06-30.95,28.12.08-.18c0,9.05,0,17.94,0,26.73v.1l-.07.08-29.55,26.71v0h0l-57.68,36.56,0,0h-.05l-60.48,9.83.09,0-38,29.52-.06,0H227l-68.92-7.07H158l0-.1c-2.65-10.65-4.9-19.67-7-28.13v0c-14.09-25.17-24.7-44.11-32.3-57.7l.06,0L85,353.18l33.75-.07h0l0,0,32.4,57.64h0v0L158.28,439l-.13-.11,68.93,7-.13,0,38-29.55,0,0H265l60.48-9.86-.08,0,57.66-36.58,0,0,29.54-26.73-.08.18c0-8.79,0-17.68,0-26.73v-.1l.08-.08L443.5,288.3l.07-.07h19.79l-.13.46-22.51-14.06-.07,0,0-.08c-13-33.43-26.5-68-40.31-103.37l.15.15-48.62-18.74-20.58-7.94-.1,0,0-.09c-9.24-19.56-18.37-38.89-26.93-57l.23.15H248l-.05-.2c-2.51-10.68-5-21.27-7.28-30.94l.11.15L224.11,45.35l-.06,0,0-.06c-6-11.4-11.9-22.67-17.3-32.94l.46-.14c1.12,12.89,2.23,25.6,3.24,37.16v.08c-2.44,10.75-4.86,21.36-7,30.94v0c-.49,10.28-1,20.42-1.41,29.54V110l-.11.06-45,23.9.12-.2c.48,12.29,1,24.3,1.39,35.17v.1l-.08.06-21.1,18.28-.06,0H137l-39.38-2.83.19-.12L85.16,222.1l0,.06,0,0-45,24.22.08-.12c0,12.78,0,24.64,0,35.16l0-.06c12.54,21.53,22.5,38.65,29.49,50.66h0Z" style="fill:#263238"></path><path d="M40.12,246.8c2.08,18.71,9.52,37.83,17.63,54.82-1.7,0,10.22-54.74,10.22-54.74l11.5,30.95s12.85-46.27,16.34-61.77Z" style="fill:#ebebeb"></path><path d="M208,14.41s0,.21.08.61.1,1,.18,1.82c.14,1.62.36,4,.63,7,.53,6.09,1.3,14.87,2.24,25.68v.06c-2,8.78-4.4,19.15-7,30.54v0c-.44,9.34-.92,19.58-1.43,30.27v.15l-.13.07-7.94,4.19-37.08,19.57.13-.22c.51,13.33,1,25.2,1.33,34.94v.09l-.06.05-16,13.95-4.34,3.74-1.13,1-.4.31.37-.35,1.1-1,4.28-3.81,15.92-14.07-.06.14c-.4-9.73-.9-21.6-1.45-34.94V134l.13-.07,37.06-19.6,7.93-4.19-.13.21c.51-10.69,1-20.92,1.46-30.27v0l7.1-30.51v.06c-.87-10.83-1.57-19.61-2.06-25.7-.23-3-.41-5.38-.54-7-.05-.78-.09-1.39-.12-1.82A5.77,5.77,0,0,1,208,14.41Z" style="fill:#FEF2DC"></path><path d="M392.68,168a1.26,1.26,0,0,1-.3-.09l-.9-.3-3.45-1.2-12.95-4.59-45-16.13-.1,0,0-.1c-4.53-9.78-9.49-20.49-14.66-31.67-4.12-8.93-8.11-17.55-11.85-25.66l.23.15-56-.11h-.11l0-.11c-1.29-5.25-2.32-9.41-3-12.28-.34-1.41-.6-2.5-.79-3.27-.08-.35-.14-.63-.19-.84a1.2,1.2,0,0,1-.05-.29,1.33,1.33,0,0,1,.09.28l.23.84.86,3.24c.73,2.86,1.8,7,3.15,12.25l-.14-.11,56-.1h.16l.06.14,11.87,25.65c5.16,11.19,10.11,21.91,14.63,31.69l-.14-.13,44.93,16.3,12.9,4.73,3.43,1.28.88.34A1.52,1.52,0,0,1,392.68,168Z" style="fill:#FEF2DC"></path><path d="M479.63,292.26a145.08,145.08,0,0,1-17-3.51,145.08,145.08,0,0,1,17,3.51Z" style="fill:#263238"></path><path d="M182.29,100.64a63.29,63.29,0,0,1-1.37-8,61.35,61.35,0,0,1-.86-8.08,65.55,65.55,0,0,1,1.37,8A63.7,63.7,0,0,1,182.29,100.64Z" style="fill:#263238"></path><path d="M203.67,110.17a3.07,3.07,0,0,1-.91-.23c-.57-.19-1.39-.48-2.4-.86-2-.76-4.77-1.88-7.76-3.26s-5.63-2.74-7.51-3.78c-1-.52-1.7-1-2.21-1.28a3.49,3.49,0,0,1-.78-.53,24.39,24.39,0,0,1,3.16,1.48c1.92,1,4.58,2.27,7.56,3.64s5.7,2.55,7.68,3.39A26.36,26.36,0,0,1,203.67,110.17Z" style="fill:#263238"></path><path d="M164.55,98.54a73.86,73.86,0,0,1,9,.56,74.81,74.81,0,0,1,8.92,1.08,79.19,79.19,0,0,1-9-.56A80.53,80.53,0,0,1,164.55,98.54Z" style="fill:#263238"></path><path d="M251.24,42.4a73.71,73.71,0,0,1-4.82,7,68.31,68.31,0,0,1-5.25,6.68,70.65,70.65,0,0,1,4.83-7A67.42,67.42,0,0,1,251.24,42.4Z" style="fill:#263238"></path><path d="M305.75,75.35a38.08,38.08,0,0,1-.5,6.25,37.47,37.47,0,0,1-1,6.19,38.74,38.74,0,0,1,.49-6.25A37.3,37.3,0,0,1,305.75,75.35Z" style="fill:#263238"></path><path d="M316,71.68a28.38,28.38,0,0,1-4.84,2.43,28.61,28.61,0,0,1-5,2A55.44,55.44,0,0,1,316,71.68Z" style="fill:#263238"></path><path d="M320.8,52.3a93.47,93.47,0,0,1-2.16,9.57A90.3,90.3,0,0,1,316,71.31a92.09,92.09,0,0,1,2.17-9.57A91.89,91.89,0,0,1,320.8,52.3Z" style="fill:#263238"></path><path d="M330.7,63.84a30.27,30.27,0,0,1-5.5,0,28,28,0,0,1-5.48-.47,30.22,30.22,0,0,1,5.5-.05A28.12,28.12,0,0,1,330.7,63.84Z" style="fill:#263238"></path><path d="M422.4,157.27a3.83,3.83,0,0,1-.85.62c-.67.42-1.47.92-2.4,1.52-2,1.28-4.82,3.06-7.84,5.12s-5.71,4-7.64,5.42l-2.3,1.67a4.08,4.08,0,0,1-.88.57,4,4,0,0,1,.76-.73c.5-.44,1.25-1.06,2.19-1.81,1.88-1.49,4.54-3.48,7.58-5.55s5.86-3.81,7.94-5c1-.6,1.89-1.07,2.49-1.38A4.13,4.13,0,0,1,422.4,157.27Z" style="fill:#263238"></path><path d="M469.18,306.78a80.55,80.55,0,0,1-3-8.72,81.48,81.48,0,0,1-2.47-8.88,81.94,81.94,0,0,1,3,8.72A81,81,0,0,1,469.18,306.78Z" style="fill:#263238"></path><path d="M20.82,261.07c-.09-.11,4-3.46,9.11-7.48s9.33-7.18,9.42-7.07-4,3.46-9.1,7.48S20.91,261.18,20.82,261.07Z" style="fill:#263238"></path><path d="M21.46,248.4a20.55,20.55,0,0,1,3.68,2.81,20.62,20.62,0,0,1,3.34,3.21,21,21,0,0,1-3.68-2.81A21.14,21.14,0,0,1,21.46,248.4Z" style="fill:#263238"></path><path d="M71.18,207.39a84.06,84.06,0,0,1,6.56,6.82,88.3,88.3,0,0,1,6.17,7.18,85.3,85.3,0,0,1-6.56-6.83A89.27,89.27,0,0,1,71.18,207.39Z" style="fill:#263238"></path></g><g id="freepik--Character--inject-201"><path d="M260.54,219l26.32-9.16L279,180.11l8.09-2.81s16.77,27.48,17.83,37-29.63,21.42-29.63,21.42Z" style="fill:#ffbe9d"></path><path d="M294.82,207.19a9.57,9.57,0,0,1-2.35,1.07c-1.5.56-3.58,1.26-5.88,2l-5.89,1.95a23.22,23.22,0,0,1-2.44.81,8.81,8.81,0,0,1,2.31-1.16c1.47-.61,3.55-1.34,5.86-2.09s4.4-1.4,5.92-1.87A19,19,0,0,1,294.82,207.19Z" style="fill:#eb996e"></path><path d="M283.35,164c-.49-.62-.44-.81-1-.94s-1.73-.65-2.13-.44-.68,1-.68,1-1.37-1.22-2.33-1.07-1.34.58-1.36.91a1.92,1.92,0,0,0-1.6-.5c-1,.16-1.64.61-1.64,1.29a3.5,3.5,0,0,0-1.23,0,2.18,2.18,0,0,0-.64.35,1.38,1.38,0,0,0-.43,1.64l.51,1.26s-1.12.42-1.18.89a2.62,2.62,0,0,0,.2,1.28,23.71,23.71,0,0,1,1.22,3.35,3.69,3.69,0,0,0,.95,1.63l4.93,2.6a8.31,8.31,0,0,1,.83.66,6.9,6.9,0,0,1,1,2.44c.84,2.32,3.35,8,3.35,8l8.46-3.64-3.19-7.4-1-2.4a7.29,7.29,0,0,0-.08-2.76,31,31,0,0,0-1.09-3.11C285,168.46,283.85,164.6,283.35,164Z" style="fill:#ffbe9d"></path><path d="M273.51,166a7.46,7.46,0,0,1-1-1.73l0-.1c0,.17.06.11,0,.13h-.18l-.34,0a3.66,3.66,0,0,0-.73.16,1.22,1.22,0,0,0-.8,1.17l0-.1c.2.44.38.9.56,1.37.67,1.76,1.2,3.37,1.59,4.53a10.26,10.26,0,0,1,.56,1.92,6.49,6.49,0,0,1-.91-1.79c-.48-1.13-1.06-2.73-1.73-4.48-.18-.46-.35-.92-.53-1.34l0,0v-.05a1.66,1.66,0,0,1,1.15-1.61,4.82,4.82,0,0,1,.84-.15,2.54,2.54,0,0,1,.39,0l.21,0,.13,0s.13,0,.15.25l0-.1A7.87,7.87,0,0,1,273.51,166Z" style="fill:#eb996e"></path><path d="M276.89,165.26c-.14,0-.36-.32-.6-.75s-.44-.82-.33-.92.5.17.78.66S277,165.23,276.89,165.26Z" style="fill:#eb996e"></path><path d="M280.36,165.16c-.15,0-.25-.32-.4-.66s-.28-.65-.17-.76.47.1.66.56S280.5,165.18,280.36,165.16Z" style="fill:#eb996e"></path><path d="M286.74,209.41c-.14,0-2-6.57-4.17-14.76s-3.81-14.86-3.67-14.89,2,6.57,4.17,14.76S286.88,209.38,286.74,209.41Z" style="fill:#FEF2DC"></path><path d="M263.69,161.21l-5.43-2.84-.51,3.82,5.74,2.85c.33.36,38.37,19,38.37,19l1.21-2.57Z" style="fill:#455a64"></path><path d="M268.81,130.12c.36-6.4-3.73-12.09-7.63-17.17-1.39-1.82-3.18-3.83-5.46-3.65A4.83,4.83,0,0,0,252.1,112a18,18,0,0,0-1.45,4.43c-1.3,5.08-3.52,9.86-5.43,14.73s-3.53,10-3.53,15.22,1.82,10.68,5.82,14.07c3.66,3.11,9.31,4,13.41,1.62,3.12-.52,5-4.12,5.13-7.36s-.93-6.74-.74-10.13C265.59,139.58,268.54,135.07,268.81,130.12Z" style="fill:#FEF2DC"></path><g style="opacity:0.8"><path d="M268.81,130.12c.36-6.4-3.73-12.09-7.63-17.17-1.39-1.82-3.18-3.83-5.46-3.65A4.83,4.83,0,0,0,252.1,112a18,18,0,0,0-1.45,4.43c-1.3,5.08-3.52,9.86-5.43,14.73s-3.53,10-3.53,15.22,1.82,10.68,5.82,14.07c3.66,3.11,9.31,4,13.41,1.62,3.12-.52,5-4.12,5.13-7.36s-.93-6.74-.74-10.13C265.59,139.58,268.54,135.07,268.81,130.12Z" style="fill:#fff"></path></g><path d="M263.27,153.18c-.16-4-1-8-.73-12,.16-2.34.69-4.67.49-7s-1.35-4.8-3.52-5.68a4.48,4.48,0,0,0-6,3.07c-.32,1.31-.05,2.74-.57,4-.82,2-3.33,2.8-4.22,4.75a6,6,0,0,0,.22,4.42,14.82,14.82,0,0,1,1.23,4.34c.08,2.43-1.5,4.66-1.6,7.09a7.31,7.31,0,0,0,4,6.41,12.08,12.08,0,0,0,7.73,1C264.91,160.38,263.43,157.19,263.27,153.18Z" style="fill:#FEF2DC"></path><g style="opacity:0.30000000000000004"><path d="M261.58,153.63c-.54-2.28-1.84-4.33-2.37-6.62a23.7,23.7,0,0,0-.75-3.44,3.15,3.15,0,0,0-2.54-2.16,3,3,0,0,0-2.72,2.46,8.83,8.83,0,0,0,.35,3.94,8.15,8.15,0,0,1,.27,3.94c-.32,1.25-1.21,2.31-1.48,3.57a5.18,5.18,0,0,0,2.3,5.05,4.63,4.63,0,0,0,2.52.91,4.36,4.36,0,0,0,4.13-2.29A7.8,7.8,0,0,0,261.58,153.63Z" style="fill:#fff"></path></g><g style="opacity:0.30000000000000004"><path d="M256.81,133.69a1.52,1.52,0,1,0,2.18.88,1.56,1.56,0,0,0-1.8-1" style="fill:#fff"></path></g><path d="M259,116.41s-2.2,2.45-2.11,4.35a2.17,2.17,0,0,0,1.8,2.22l.53-3.29Z" style="fill:#FEF2DC"></path><path d="M269.3,167.82a23,23,0,0,1-4.49-1.93,23.55,23.55,0,0,1-4.26-2.4,22.85,22.85,0,0,1,4.49,1.93A23.72,23.72,0,0,1,269.3,167.82Z" style="fill:#FEF2DC"></path><path d="M236.54,155.66a8,8,0,0,1-.37-1.51c-.22-1-.44-2.4-.65-4.17a56.12,56.12,0,0,1-.34-6.25,57.24,57.24,0,0,1,2.06-15.17,55.47,55.47,0,0,1,2-5.94c.67-1.65,1.27-3,1.73-3.85a10,10,0,0,1,.76-1.35,9.85,9.85,0,0,1-.57,1.44c-.41.9-1,2.23-1.58,3.89s-1.26,3.67-1.87,5.93a62.48,62.48,0,0,0-2,15c0,2.34.07,4.45.23,6.22s.32,3.19.48,4.17A9.92,9.92,0,0,1,236.54,155.66Z" style="fill:#FEF2DC"></path><path d="M231.46,144.78a6.83,6.83,0,0,1-.24-1.95,32.05,32.05,0,0,1,1-9.43,6.57,6.57,0,0,1,.66-1.86c.15,0-.62,2.94-1,6.59S231.62,144.77,231.46,144.78Z" style="fill:#FEF2DC"></path><path d="M273.27,133.3c-.16,0,.54-2.9.48-6.49s-.81-6.44-.66-6.48a5.51,5.51,0,0,1,.62,1.83,22,22,0,0,1,.13,9.29A5.68,5.68,0,0,1,273.27,133.3Z" style="fill:#FEF2DC"></path><path d="M276.42,133.6a46.49,46.49,0,0,0,1.18-7.31,47.58,47.58,0,0,0-.51-7.39,6.8,6.8,0,0,1,.63,2.11,22.21,22.21,0,0,1-.47,10.54A7,7,0,0,1,276.42,133.6Z" style="fill:#FEF2DC"></path><path d="M233.36,166.65l.46-.12a8.47,8.47,0,0,1,7-4.15,11,11,0,0,1,7.72,2.88c1.47,1.3,2.63,2.91,4.1,4.21a6.42,6.42,0,0,0,5.35,1.85c.23.72-1.1,1.14-1,1.89a.89.89,0,0,0,.76.66,10.3,10.3,0,0,0,1.57,0,1.25,1.25,0,0,1,1.25.77,1.52,1.52,0,0,1-.06.76,13.67,13.67,0,0,1-3.11,6.09,7.1,7.1,0,0,1-6.23,2.27,11.27,11.27,0,0,1-4.76-2.68l-8.18-6.56a18.38,18.38,0,0,1-3.49-3.33A6.24,6.24,0,0,1,233.36,166.65Z" style="fill:#263238"></path><path d="M235.07,167.1a8.94,8.94,0,0,0-3.81-1.89,5.33,5.33,0,0,0-4.1.79,11.78,11.78,0,0,0-2.5,3.09,5,5,0,0,1-3.08,2.35,1.13,1.13,0,0,0-.66.21c-.3.28-.08.84.29,1a2,2,0,0,0,1.22,0,4.33,4.33,0,0,1-2.56,1.44,1.87,1.87,0,0,0,2.3,1.33,19.46,19.46,0,0,0-.76,4.71,6.5,6.5,0,0,0,1.54,4.41c1.19,1.29,3.13,2,3.65,3.68" style="fill:#263238"></path><path d="M246.55,223.3,225.26,223l2.38-18.16s-1.46-.31-1.56-8.21-.46-21.31-.46-21.31h0a27.39,27.39,0,0,1,27.55,3.46l1.17.9Z" style="fill:#ffbe9d"></path><path d="M251.87,189.43c.13-.06,5.42-1.61,5.24,3.79s-5.55,4.11-5.55,4S251.87,189.43,251.87,189.43Z" style="fill:#ffbe9d"></path><path d="M226.54,188.3c-.13-.06-4.94-1.36-4.77,4s5.55,4.12,5.56,4S226.54,188.3,226.54,188.3Z" style="fill:#ffbe9d"></path><path d="M253.61,188.82c-.8,4.53-.64,6.91-1.39,9.93-1.18,4.78-3.55,8.45-7.85,10.84s-10.12,2.34-13.82-.91c-2.56-2.26-4.38-4.81-4.76-8.2s-1.38-9.78-1.41-13.2c0-6.16.17-11.69.17-11.69l17.58-3.19,10,6Z" style="fill:#263238"></path><path d="M235.47,212.31a5.6,5.6,0,0,0,3.08.27,5.75,5.75,0,0,0,2.95-.93c-.05-.14-1.35.27-3,.44S235.49,212.17,235.47,212.31Z" style="fill:#263238"></path><path d="M252.76,196.52c.52-4.64.85-9.94,1.58-14.83.27-1.84.92-4.48.76-6.33s-.67-1.29-1.49-3c-1-2.1-4.93-3.5-7.21-4s-2.57-2.44-4.33-.9A5.71,5.71,0,0,0,231.66,170a4,4,0,0,0-6.54,4,3.89,3.89,0,0,0-2.62,5.94c.82,1.26,2.29,1.95,3.19,3.15a4.52,4.52,0,0,1,.27,4.87" style="fill:#263238"></path><path d="M230.1,195.55a8.66,8.66,0,0,0,.61,4.75,8.56,8.56,0,0,0,2.68,4,29.74,29.74,0,0,1-2.22-4.14A31.06,31.06,0,0,1,230.1,195.55Z" style="fill:#455a64"></path><path d="M227.74,191.61a8.38,8.38,0,0,0,1.48,8.16,24.38,24.38,0,0,1-1.34-4A24,24,0,0,1,227.74,191.61Z" style="fill:#455a64"></path><path d="M249.89,173A12,12,0,0,0,244.4,168a7,7,0,0,0-7.06.89" style="fill:#263238"></path><path d="M249.45,184.9c-.09,0,0-.63.17-1.6a21,21,0,0,0,.41-3.74,8.45,8.45,0,0,0-.81-3.58c-.42-.85-.85-1.29-.78-1.36s.6.28,1.16,1.14a7.16,7.16,0,0,1,1.05,3.79,13.3,13.3,0,0,1-.6,3.86A4.22,4.22,0,0,1,249.45,184.9Z" style="fill:#455a64"></path><path d="M245.81,186.68c-.16-.08.28-1.15.7-2.49s.69-2.47.87-2.44a4.29,4.29,0,0,1-.27,2.63C246.66,185.79,246,186.77,245.81,186.68Z" style="fill:#455a64"></path><path d="M228.92,185.3a4.59,4.59,0,0,1-1.21-1.93A9.53,9.53,0,0,1,229.77,173a4.56,4.56,0,0,1,1.86-1.31c.06.08-.65.58-1.53,1.61a10.36,10.36,0,0,0-2.3,4.68,10.47,10.47,0,0,0,.32,5.21C228.54,184.51,229,185.24,228.92,185.3Z" style="fill:#455a64"></path><path d="M248.15,165.21a7.89,7.89,0,0,1-1.74-.73,10.22,10.22,0,0,0-4.24-1,5.14,5.14,0,0,0-3.85,1.63,10.79,10.79,0,0,0-1,1.54c-.07,0-.09-.82.64-1.82a4.78,4.78,0,0,1,1.64-1.38,5.76,5.76,0,0,1,2.54-.59,8.94,8.94,0,0,1,4.45,1.27C247.63,164.67,248.19,165.14,248.15,165.21Z" style="fill:#455a64"></path><path d="M224.09,170.21c-.06,0,.06-.63.63-1.43a5.82,5.82,0,0,1,6.85-2c.91.37,1.34.81,1.3.87s-.56-.21-1.44-.45a6.2,6.2,0,0,0-6.37,1.85C224.45,169.73,224.18,170.25,224.09,170.21Z" style="fill:#455a64"></path><path d="M229.89,190.06c0-.08.87-.31,2.29-.95a18.37,18.37,0,0,0,5.21-3.53l1-1-.56,1.32a12.09,12.09,0,0,0-.76,2.56c-.09.45-.16,1,0,1.08s.6-.1,1-.39a15.92,15.92,0,0,0,3.62-3.2l.94-1.12-.43,1.39L241,190.1l-.4-.25a23.49,23.49,0,0,0,3.44-4.35,4.35,4.35,0,0,1-.6,1.41,15,15,0,0,1-2.5,3.29l-.66.66.25-.9c.33-1.19.7-2.49,1.1-3.9l.51.27a16.06,16.06,0,0,1-3.74,3.36,5.63,5.63,0,0,1-.7.4,1,1,0,0,1-1,0,1.06,1.06,0,0,1-.34-.93,5.55,5.55,0,0,1,.11-.76,11.81,11.81,0,0,1,.83-2.68l.47.32a16.65,16.65,0,0,1-5.47,3.43A7.5,7.5,0,0,1,229.89,190.06Z" style="fill:#455a64"></path><path d="M240.18,169.24a2.76,2.76,0,0,0-1.7-1.32,4.86,4.86,0,0,0-2.18,0,7.82,7.82,0,0,0-4.59,2.66c-.27.31-.5.8-.22,1.1a.9.9,0,0,0,.6.21,34.1,34.1,0,0,0,7.95-.28" style="fill:#263238"></path><path d="M258.08,170.79s-.09.14-.34.31a2.84,2.84,0,0,1-1.25.44,4.31,4.31,0,0,1-2.09-.3,6.53,6.53,0,0,1-2.26-1.62c-.73-.73-1.39-1.63-2.19-2.49a17.57,17.57,0,0,0-2.81-2.49,11.16,11.16,0,0,0-3.68-1.79,8.75,8.75,0,0,0-4.34.06,8.42,8.42,0,0,0-5.1,3.43l-.18.29-.22-.25a4.26,4.26,0,0,0-2.74-1.41,5.31,5.31,0,0,0-2.84.51c-1.74.77-2.49,2.4-3.32,3.54-.41.58-.73,1.12-1.11,1.56a2.56,2.56,0,0,1-1.2.81,2.31,2.31,0,0,1-.9.07.69.69,0,0,1-.3-.07,4.37,4.37,0,0,0,1.15-.16,2.55,2.55,0,0,0,1.07-.81c.33-.42.64-1,1-1.57s.78-1.24,1.27-2a5.88,5.88,0,0,1,2.12-1.8,5.65,5.65,0,0,1,3.08-.58,4.67,4.67,0,0,1,3.06,1.54l-.4,0a8.92,8.92,0,0,1,5.4-3.68,9.31,9.31,0,0,1,4.6,0,11.53,11.53,0,0,1,3.83,1.89,17.92,17.92,0,0,1,2.85,2.58c.8.91,1.45,1.81,2.13,2.54a5.16,5.16,0,0,0,4.07,2A3.61,3.61,0,0,0,258.08,170.79Z" style="fill:#FEF2DC"></path><path d="M231.34,184.36a4.46,4.46,0,0,1-.88-1.81,10.09,10.09,0,0,1,1.69-9.29,4.57,4.57,0,0,1,1.47-1.38c.06.06-.49.6-1.17,1.6a11,11,0,0,0-1.64,9C231.09,183.63,231.42,184.32,231.34,184.36Z" style="fill:#FEF2DC"></path><path d="M249.45,175.41c-.08.05-.48-.57-1.27-1.43a13.65,13.65,0,0,0-3.59-2.76,13.4,13.4,0,0,0-4.3-1.4,17.3,17.3,0,0,1-1.9-.24,4.52,4.52,0,0,1,1.94-.13,11.69,11.69,0,0,1,8.13,4.29A4.86,4.86,0,0,1,249.45,175.41Z" style="fill:#FEF2DC"></path><path d="M218.21,396h0l11.07,65.44L244.2,467s-.56-44.08-1.13-49.65c-1.13-11-1.73-24.24-1.73-24.24Z" style="fill:#ffbe9d"></path><polygon points="253.83 392.38 279.48 461.75 294.59 456.34 275.61 387.54 275.61 387.54 253.83 392.38" style="fill:#ffbe9d"></polygon><path d="M211.2,334l2.65,62.48,31-3.85L243.64,369l2-5-.84,2.1,5.9,26.78L278.43,387l-6.76-64.5s-3.61-9.17-3.86-10.86-9.87-6.75-9.87-6.75L211.2,328Z" style="fill:#263238"></path><path d="M254.83,345.26a3.88,3.88,0,0,1-.4,1l-1.22,2.53c-1,2.13-2.45,5.08-4,8.36l-3.89,8.41c-.46,1-.86,1.84-1.2,2.54a3.76,3.76,0,0,1-.5.91,3.9,3.9,0,0,1,.32-1c.23-.62.59-1.51,1-2.61.91-2.19,2.22-5.2,3.75-8.48s3-6.22,4.12-8.31c.56-1.05,1-1.88,1.37-2.45A4.09,4.09,0,0,1,254.83,345.26Z" style="fill:#455a64"></path><path d="M225.07,217.64c-1.28.18-17.12,6.52-19.32,10.52-1.11,2-4.6,31.17-4.6,31.17l19,.73s-3.83,31.63-2.92,34.37c0,0-1.71,8.67-2.31,10.41-1.34,3.91-3.71,23.16-3.71,23.16s64.45-3.77,64.08-4.32-1.64-14.93-1.64-14.93l-2-80.14L260,217.56l-10.8-.83Z" style="fill:#FEF2DC"></path><path d="M202,259.36a2,2,0,0,1,.4,0h1.16l4.36.08,15.12.41-.25.24c0-3.2-.09-6.7-.32-10.35-.14-2.16-.32-4.27-.53-6.3-.12-1-.23-2-.34-3a22.44,22.44,0,0,0-.45-2.82,38.13,38.13,0,0,0-1.51-5.08,8.5,8.5,0,0,0-2.81-3.49,9.72,9.72,0,0,0-6.25-1.79,17.36,17.36,0,0,0-2.42.42,7,7,0,0,1,2.4-.62,9.65,9.65,0,0,1,6.48,1.69,8.82,8.82,0,0,1,3,3.62,38.81,38.81,0,0,1,1.58,5.14,26.43,26.43,0,0,1,.48,2.87c.11,1,.23,2,.35,3,.22,2,.4,4.15.54,6.32.23,3.65.32,7.17.29,10.38v.26h-.25l-15.12-.6-4.36-.22-1.16-.07A1.8,1.8,0,0,1,202,259.36Z" style="fill:#263238"></path><polygon points="278.05 212.49 291.8 229.12 276.35 238.83 258.81 221.77 259.97 217.56 278.05 212.49" style="fill:#FEF2DC"></polygon><g style="opacity:0.30000000000000004"><path d="M221.19,237.23q.87,9.65,1.75,19.28a5,5,0,0,1-.37,3.1c-.55.91-2,1.32-2.67.51l-2.2,22.42a79.36,79.36,0,0,0,5.61-17.24,49.84,49.84,0,0,0,.87-5.84C224.78,252,223,244.53,221.19,237.23Z"></path></g><path d="M206,335.28a8.3,8.3,0,0,1,2.61,5.34,14,14,0,0,0,.23,2.41c.36,1.35,1.43,2.39,1.95,3.69a2.68,2.68,0,0,1,.17,1.74,1.43,1.43,0,0,1-1.29,1.05,1.68,1.68,0,0,1-1.18-.63c-1.21-1.28-1.42-3.29-2.7-4.5" style="fill:#ffbe9d"></path><path d="M205.81,344.38s.3.16.66.63a13.06,13.06,0,0,1,1.18,2.17,6.29,6.29,0,0,0,.87,1.39c.36.44.91.84,1.43.66a1.38,1.38,0,0,0,.85-1.46,4.52,4.52,0,0,0-.79-2,16.85,16.85,0,0,1-1.17-2,5.45,5.45,0,0,1-.4-2.19,8.88,8.88,0,0,0-.66-3.48,13.06,13.06,0,0,0-1.76-2.79s.29.16.7.58a7.71,7.71,0,0,1,1.4,2.06,8.78,8.78,0,0,1,.8,3.61,5.13,5.13,0,0,0,.39,2,17.12,17.12,0,0,0,1.15,2,5,5,0,0,1,.85,2.25,1.86,1.86,0,0,1-1.22,1.95,1.4,1.4,0,0,1-1.14-.16,2.64,2.64,0,0,1-.76-.68,6.21,6.21,0,0,1-.87-1.51,19.37,19.37,0,0,0-1-2.21C206,344.64,205.78,344.41,205.81,344.38Z" style="fill:#eb996e"></path><path d="M203.71,259.4s-3.51,20.06-3.69,21.81-3.14,56.1-3.14,56.1-1.39,12.06,0,14.5a6.3,6.3,0,0,0,5,3.15c1.08,0,6.78-3.8,6.78-3.8h0L207,337.79l-.95-2.51,1.68-8.86,10.19-45.63,2.25-20.73Z" style="fill:#ffbe9d"></path><path d="M200.47,334a10.39,10.39,0,0,1,1.27,10.58l6.46.82a1.4,1.4,0,0,1,1,.39,1,1,0,0,1-.24,1.3,2.73,2.73,0,0,1-1.37.49q-2.67.45-5.36.77" style="fill:#ffbe9d"></path><path d="M202.21,348.37a3.79,3.79,0,0,1,1-.25c.68-.13,1.66-.3,2.86-.5.6-.1,1.29-.17,2-.34a1.61,1.61,0,0,0,.84-.46A.74.74,0,0,0,209,346c-.15-.22-.53-.29-1-.34l-1.29-.16-2.71-.34-2.36-.3-.34,0,.14-.32a10.49,10.49,0,0,0,.34-7.62,18.15,18.15,0,0,0-1.38-2.85,2.55,2.55,0,0,1,.57.64,9.24,9.24,0,0,1,1.13,2.1,10.42,10.42,0,0,1-.19,7.94l-.2-.36,2.35.3,2.71.35,1.29.17a1.69,1.69,0,0,1,1.29.57,1.18,1.18,0,0,1-.16,1.37,1.9,1.9,0,0,1-1.08.6c-.74.16-1.39.2-2,.29-1.22.15-2.21.26-2.89.33A5.08,5.08,0,0,1,202.21,348.37Z" style="fill:#eb996e"></path><path d="M208.69,351.16a2.92,2.92,0,0,0,1.4-.59,1,1,0,0,0,.19-1.37c-.38-.43-1.94.06-2.48.22a8.2,8.2,0,0,0,1.86-.9.86.86,0,0,0,.15-1,1.05,1.05,0,0,0-1.13-.31,24.84,24.84,0,0,1-6.47,1.2" style="fill:#ffbe9d"></path><path d="M202.21,348.37c0-.08.93-.12,2.4-.41.74-.15,1.61-.35,2.56-.61.49-.13,1-.28,1.51-.44a1.38,1.38,0,0,1,1,.11,1,1,0,0,1,.51,1,1.2,1.2,0,0,1-.41.79,3.75,3.75,0,0,1-.65.38c-.43.19-.84.36-1.24.51l-.16-.47a5.29,5.29,0,0,1,2.34-.33.73.73,0,0,1,.5.4,1.13,1.13,0,0,1,.08.56,1.34,1.34,0,0,1-.41.82,2.26,2.26,0,0,1-1.11.5c-.27.05-.42.05-.43,0s.13-.08.39-.18a2.45,2.45,0,0,0,.93-.55,1,1,0,0,0,.27-.64c0-.24-.1-.51-.32-.53a5.43,5.43,0,0,0-2.09.4.25.25,0,0,1-.31-.16.26.26,0,0,1,.15-.31c.38-.15.79-.32,1.19-.51a3.06,3.06,0,0,0,.54-.31.75.75,0,0,0,.23-.44c.07-.39-.46-.64-.87-.53s-1,.3-1.51.41a24.32,24.32,0,0,1-2.62.51A7,7,0,0,1,202.21,348.37Z" style="fill:#eb996e"></path><path d="M224.84,373.14a12.85,12.85,0,0,1-2.83-.31c-5.24-1.16-9.87-5.75-11.79-11.67a27.17,27.17,0,0,1,.6-17.1,26.27,26.27,0,0,1,1.41-3.35,15.3,15.3,0,0,1,2.54-6.81,14.26,14.26,0,0,1,9.8-5.71,15.62,15.62,0,0,1,12,3.23c5.18,4.23,7.84,12,7,20.36-.47,4.4-1.95,10.67-6.34,15.55A17,17,0,0,1,224.84,373.14ZM212.34,347a24.05,24.05,0,0,0,.09,13.4c1.67,5.15,5.63,9.13,10.09,10.12s9.44-.91,12.92-4.79c3.1-3.44,5.15-8.5,5.75-14.24.63-5.92-.65-13.84-6.12-18.31a12.78,12.78,0,0,0-5.91-2.65,12.53,12.53,0,0,1,7.32,5.54c1.83,3.48,2.32,8,1.47,13.36-.58,3.62-2.3,10-7.4,12.4s-10.54-.54-13.6-4.15A22.47,22.47,0,0,1,212.34,347Zm2.15-5.6a20.86,20.86,0,0,0,4.24,14.77c2.51,3,7,5.33,10.85,3.54,4.11-1.9,5.57-7.48,6.07-10.64.77-4.88.36-8.89-1.23-11.92-1.7-3.25-7.38-5.68-10.66-4.58C219.55,334.17,216.43,337.79,214.49,341.44Z" style="fill:#455a64"></path><path d="M231,331c0,.09-1.24-.26-3.26-.4a12.72,12.72,0,0,0-7.49,1.75,12.58,12.58,0,0,0-4.75,6,18.41,18.41,0,0,0-.76,3.18,2.56,2.56,0,0,1-.05-.9,9.1,9.1,0,0,1,.47-2.4,12.17,12.17,0,0,1,4.82-6.36,12.33,12.33,0,0,1,7.79-1.68,15.3,15.3,0,0,1,2.4.46A2.73,2.73,0,0,1,231,331Z" style="fill:#263238"></path><path d="M213.17,350.53a13.74,13.74,0,0,1-1.34-6c-.2-3.42.7-6.12.84-6.05a41.28,41.28,0,0,0-.32,6A56.82,56.82,0,0,0,213.17,350.53Z" style="fill:#263238"></path><path d="M214.67,345.58a5.46,5.46,0,0,0-1.29.12,5.92,5.92,0,0,0-1.16.58,1.73,1.73,0,0,1,1.11-.79A1.62,1.62,0,0,1,214.67,345.58Z" style="fill:#263238"></path><path d="M217,353.9a11.05,11.05,0,0,0-1.07.46,9.46,9.46,0,0,0-.88.76A1.93,1.93,0,0,1,217,353.9Z" style="fill:#263238"></path><path d="M221.32,361.33a1.45,1.45,0,0,1,.24-1.26,1.43,1.43,0,0,1,1-.75,4.54,4.54,0,0,0-.86.86A4.44,4.44,0,0,0,221.32,361.33Z" style="fill:#263238"></path><path d="M231.62,361.35a1.58,1.58,0,0,1-1.6-1.76,3.35,3.35,0,0,0,.56,1.1A3.17,3.17,0,0,0,231.62,361.35Z" style="fill:#263238"></path><path d="M237.38,352.16a1.44,1.44,0,0,1-2.24-.58,2.78,2.78,0,0,0,1,.65A3,3,0,0,0,237.38,352.16Z" style="fill:#263238"></path><path d="M238.25,342.67c.07,0-.24.66-1,.78A1.2,1.2,0,0,1,236,343a2.61,2.61,0,0,0,1.19.25A2.35,2.35,0,0,0,238.25,342.67Z" style="fill:#263238"></path><path d="M234.46,333.51a1.35,1.35,0,0,1-.52,1.27,1.31,1.31,0,0,1-1.33.31,2.67,2.67,0,0,0,1.19-.47A2.61,2.61,0,0,0,234.46,333.51Z" style="fill:#263238"></path><path d="M223.5,332.63s-.09.14-.29.06a.8.8,0,0,1-.42-.54,1,1,0,0,1,.09-.92,8.67,8.67,0,0,0,.11.86.85.85,0,0,0,.29.47C223.39,332.65,223.48,332.6,223.5,332.63Z" style="fill:#263238"></path><path d="M217.11,337.77c0,.05-.35,0-.65-.27s-.36-.62-.31-.63.19.24.45.48S217.13,337.71,217.11,337.77Z" style="fill:#263238"></path><path d="M215.93,336.91a2.76,2.76,0,0,0-.84-1.08,2.72,2.72,0,0,0-1.33-.32,1.6,1.6,0,0,1,2.17,1.4Z" style="fill:#263238"></path><path d="M222.5,331.11a9.2,9.2,0,0,0-.39-1.16,7.65,7.65,0,0,0-.7-1,1.64,1.64,0,0,1,.89.9A1.69,1.69,0,0,1,222.5,331.11Z" style="fill:#263238"></path><path d="M231.62,328.75a1.38,1.38,0,0,1-.14,1.3,1.36,1.36,0,0,1-1.06.78c0-.06.54-.27.88-.88A3.44,3.44,0,0,0,231.62,328.75Z" style="fill:#263238"></path><path d="M240.08,335.6c.06,0-.15.55-.72.89a1.35,1.35,0,0,1-1.13.23,6.71,6.71,0,0,0,1-.41A7.12,7.12,0,0,0,240.08,335.6Z" style="fill:#263238"></path><path d="M243.33,345a1.23,1.23,0,0,1-1,.62,1.26,1.26,0,0,1-1.14-.26,3.86,3.86,0,0,0,1.11.06A4.13,4.13,0,0,0,243.33,345Z" style="fill:#263238"></path><path d="M243.06,354.74a1.22,1.22,0,0,1-1.25.38,1.24,1.24,0,0,1-1-.84,2.51,2.51,0,0,0,1,.64A2.44,2.44,0,0,0,243.06,354.74Z" style="fill:#263238"></path><path d="M237.87,366.26a1.55,1.55,0,0,1-1.15-.39,1.08,1.08,0,0,1-.4-.79c0-.24.09-.37.11-.36s0,.14,0,.34a1.19,1.19,0,0,0,.4.65C237.34,366.09,237.9,366.19,237.87,366.26Z" style="fill:#263238"></path><path d="M229.56,372.58a1.36,1.36,0,0,1-.8-1.06,1.39,1.39,0,0,1,.24-1.3,3.44,3.44,0,0,0,0,1.26A3.09,3.09,0,0,0,229.56,372.58Z" style="fill:#263238"></path><path d="M218.88,371.81a1.79,1.79,0,0,1,.56-2.36,5.16,5.16,0,0,0-.53,1.12A4.6,4.6,0,0,0,218.88,371.81Z" style="fill:#263238"></path><path d="M213.68,363.68a3.22,3.22,0,0,0-1,.57,3.53,3.53,0,0,0-.58,1,1.46,1.46,0,0,1,1.54-1.53Z" style="fill:#263238"></path><path d="M211.43,356.73a4.51,4.51,0,0,0-1,.08,5.48,5.48,0,0,0-.94.49,1.21,1.21,0,0,1,.88-.69A1.18,1.18,0,0,1,211.43,356.73Z" style="fill:#263238"></path><path d="M245.23,450.15l1.69,30.19-36.31,2.42c0-3.48,19.83-11.68,19.83-11.68l-2.61-18.27Z" style="fill:#FEF2DC"></path><g style="opacity:0.6000000000000001"><path d="M240,468.74a1.47,1.47,0,0,1,1.14,1.62,1.42,1.42,0,0,1-1.6,1.14,1.55,1.55,0,0,1-1.19-1.72,1.48,1.48,0,0,1,1.79-1" style="fill:#fff"></path></g><g style="opacity:0.6000000000000001"><path d="M246.92,480.34l-.29-2.94-34.71,3.42s-1.57.81-1.31,1.94Z" style="fill:#fff"></path></g><path d="M229.91,471.45c0,.17.91.2,1.82.71s1.42,1.22,1.58,1.14-.17-1.09-1.28-1.69S229.86,471.29,229.91,471.45Z" style="fill:#263238"></path><path d="M225.26,473.41c0,.18.76.43,1.41,1.14s.88,1.49,1.06,1.47.22-1-.61-1.9S225.26,473.24,225.26,473.41Z" style="fill:#263238"></path><path d="M223.47,477.94c.16,0,.35-.88-.17-1.82s-1.37-1.27-1.44-1.12.48.64.9,1.42S223.29,477.93,223.47,477.94Z" style="fill:#263238"></path><path d="M229.87,466.57c.09.15.88-.15,1.89-.15s1.81.27,1.89.11-.71-.74-1.9-.72S229.77,466.43,229.87,466.57Z" style="fill:#263238"></path><path d="M229.37,463.63a2.23,2.23,0,0,1-.16-1,5.54,5.54,0,0,1,.75-2.77,5.43,5.43,0,0,1,1.31-1.53,1.17,1.17,0,0,1,2,.76,4.56,4.56,0,0,1-2.88,4.25,4.75,4.75,0,0,1-5-1,2.94,2.94,0,0,1-.73-1,1.11,1.11,0,0,1-.07-.68.89.89,0,0,1,.46-.54,1.67,1.67,0,0,1,1.15,0,6.48,6.48,0,0,1,.88.39,7.26,7.26,0,0,1,2.24,1.77,2.66,2.66,0,0,1,.58.88,10.1,10.1,0,0,0-3-2.32c-.51-.23-1.18-.56-1.68-.35a.47.47,0,0,0-.16.66,2.82,2.82,0,0,0,.64.82,4.33,4.33,0,0,0,4.51.85,4.17,4.17,0,0,0,2.61-3.7.87.87,0,0,0-.49-.71.9.9,0,0,0-.8.22,5.24,5.24,0,0,0-1.26,1.38,5.91,5.91,0,0,0-.86,2.59C229.36,463.26,229.42,463.63,229.37,463.63Z" style="fill:#263238"></path><path d="M291.9,440.33l6.91,29.48-34.89,10.36c-.78-3.4,16.34-15.71,16.34-15.71l-7.07-18.7Z" style="fill:#FEF2DC"></path><g style="opacity:0.6000000000000001"><path d="M289.55,460a1.48,1.48,0,0,1,1.47,1.33,1.44,1.44,0,0,1-1.31,1.47,1.56,1.56,0,0,1-1.54-1.42A1.48,1.48,0,0,1,289.7,460" style="fill:#fff"></path></g><g style="opacity:0.6000000000000001"><path d="M298.81,469.81l-.93-2.8-33.1,11s-1.36,1.13-.86,2.18Z" style="fill:#fff"></path></g><path d="M280.09,464.61c.05.17.93,0,1.93.3s1.65.88,1.79.76-.41-1-1.62-1.36S280,464.47,280.09,464.61Z" style="fill:#263238"></path><path d="M276.16,467.82c0,.18.83.25,1.63.8s1.18,1.26,1.35,1.2,0-1.05-1-1.71S276.12,467.66,276.16,467.82Z" style="fill:#263238"></path><path d="M275.4,472.63c.17,0,.15-.93-.56-1.73s-1.62-.94-1.65-.78.61.52,1.19,1.19S275.23,472.67,275.4,472.63Z" style="fill:#263238"></path><path d="M278.62,460.23c.12.13.83-.34,1.81-.56s1.82-.14,1.87-.31-.86-.57-2-.29S278.5,460.12,278.62,460.23Z" style="fill:#263238"></path><path d="M278,457.38a2.47,2.47,0,0,1-.38-1,5.47,5.47,0,0,1,.12-2.86,5.12,5.12,0,0,1,.94-1.78,1.17,1.17,0,0,1,2.14.29,4.58,4.58,0,0,1-1.87,4.78,4.73,4.73,0,0,1-5.13.16,3,3,0,0,1-.94-.81,1.13,1.13,0,0,1-.21-.66.86.86,0,0,1,.32-.62,1.63,1.63,0,0,1,1.12-.24,8,8,0,0,1,.95.19,7.27,7.27,0,0,1,2.58,1.24,2.78,2.78,0,0,1,.76.72A10.54,10.54,0,0,0,275,455.2c-.55-.1-1.28-.28-1.72,0a.46.46,0,0,0,0,.67,2.87,2.87,0,0,0,.81.67,4.3,4.3,0,0,0,4.58-.17,4.17,4.17,0,0,0,1.73-4.19.82.82,0,0,0-.63-.57.84.84,0,0,0-.73.39,5.1,5.1,0,0,0-.92,1.62,5.84,5.84,0,0,0-.28,2.71C277.93,457,278.06,457.36,278,457.38Z" style="fill:#263238"></path><g style="opacity:0.30000000000000004"><path d="M273.64,308.53l-58.73-3.69c17.79,5.61,36.28,9.73,54.92,10.33a30.23,30.23,0,0,0,4.34-.67S273.52,308.24,273.64,308.53Z"></path></g><path d="M216.68,221.06s17.79,6.68,19.35,8.4c3.77,4.16,7.65,9.37,7.65,19.95v39.83a6,6,0,0,1-6.24,6l-20.22-.8a24.43,24.43,0,0,0-2.31,10.41s24.63,3.43,36.07,5.36,25-.5,25-.5l-4.3-81.09-19.14-11.52-3.35-.36s2.19,2.54.06,4c-2.86,1.95-12.67,1.22-12.67,1.22L223.8,218Z" style="fill:#263238"></path><path d="M250.91,222.25a11.75,11.75,0,0,0-5.45,10.63c.9,17.46,3.54,68.31,3.72,68.84s10.78,7.63,17.32,8.36c4.11.46,13.64-.8,20.15-1.81a8,8,0,0,0,6.74-7.76l.16-10.46s4.24-1.64,4.41-2.08c.52-1.3.3-12.8.13-19.2a7,7,0,0,0-3.95-6.11l-1.88-.91s0-21.28-.46-32.59a9.64,9.64,0,0,0-6.57-8.74h0a9.52,9.52,0,0,0-3.35-.49c-6.43.21-28.81,1-30.9,2.27Z" style="fill:#455a64"></path><path d="M288.69,222.46l-.29,0-.83,0-3.23.13-5.09.25c-2,.12-4.25.25-6.72.62a53.09,53.09,0,0,0-8,1.41,9.37,9.37,0,0,0-3.88,2.09,7.45,7.45,0,0,0-1.87,4.22,46.72,46.72,0,0,0-.68,10.29c.12,3.61.23,7.34.36,11.16.44,15.27.85,29.09,1.14,39.14.12,5,.22,9,.29,11.86,0,1.37,0,2.45.05,3.23v.84a1.58,1.58,0,0,1,0,.28,1.18,1.18,0,0,1,0-.28l-.05-.84c0-.78-.08-1.85-.15-3.22-.11-2.84-.26-6.88-.45-11.86-.33-10.05-.79-23.86-1.29-39.13-.12-3.82-.24-7.55-.35-11.15a46.56,46.56,0,0,1,.72-10.41,15.22,15.22,0,0,1,.66-2.4,7.69,7.69,0,0,1,.56-1.11,6.61,6.61,0,0,1,.8-.94,9.81,9.81,0,0,1,4.08-2.19,53.9,53.9,0,0,1,8.1-1.36c2.49-.34,4.76-.45,6.75-.54s3.71-.14,5.11-.16l3.22,0h.84Z" style="fill:#263238"></path><path d="M292.42,262.23c0,.14-7.5.86-16.78,1.61s-16.82,1.23-16.83,1.09,7.5-.86,16.79-1.61S292.41,262.09,292.42,262.23Z" style="fill:#263238"></path><path d="M296.47,265.58a3.15,3.15,0,0,1-.63.11l-1.84.21-6.87.72-23.49,2.3.23-.28c.43,3.17.2,6.53.37,9.94a18,18,0,0,0,2.08,8.19,8.84,8.84,0,0,0,6.07,4.55,20.26,20.26,0,0,0,3.7.32l3.53,0c2.28,0,4.4-.07,6.33-.24a30.13,30.13,0,0,0,8.9-2c.5-.19.94-.4,1.31-.58s.69-.34.94-.48a4.5,4.5,0,0,1,.78-.4,15.76,15.76,0,0,1-2.95,1.65,29,29,0,0,1-8.95,2.17c-1.94.2-4.07.29-6.36.31h-3.54a21.49,21.49,0,0,1-3.78-.31,8.74,8.74,0,0,1-3.68-1.6,10.48,10.48,0,0,1-2.74-3.17,18.37,18.37,0,0,1-2.16-8.42c-.17-3.45.07-6.79-.35-9.89l0-.27.27,0,23.5-2.12,6.88-.57,1.85-.13A3.86,3.86,0,0,1,296.47,265.58Z" style="fill:#263238"></path><path d="M261.6,221.52a14.34,14.34,0,0,0-3.08,1.5,15.37,15.37,0,0,0-5.55,7.34c-1.44,3.71-1.65,8.51-1.36,13.75s.57,11,.89,17.11c.59,12.12,1.12,23.1,1.51,31.1.16,3.94.3,7.15.4,9.42,0,1.08.06,1.94.08,2.57a5.52,5.52,0,0,1,0,.89,5.62,5.62,0,0,1-.1-.89c0-.63-.1-1.48-.18-2.56-.13-2.27-.32-5.47-.56-9.42-.43-8-1-19-1.66-31.09-.3-6.07-.59-11.85-.85-17.11s0-10.13,1.5-13.9a15.21,15.21,0,0,1,5.78-7.38,10.72,10.72,0,0,1,2.32-1.11l.65-.18A1,1,0,0,1,261.6,221.52Z" style="fill:#263238"></path><path d="M298.28,269.54c0,.15-7.66,1.18-17.16,2.31s-17.21,1.93-17.22,1.79,7.66-1.18,17.16-2.31S298.27,269.4,298.28,269.54Z" style="fill:#263238"></path><polygon points="270.15 244.15 284.46 242.57 284.46 235.77 280.04 240.31 279.34 237.37 274.96 240.87 274.96 238.23 270.15 244.15" style="fill:#fff"></polygon><g style="opacity:0.30000000000000004"><path d="M294.19,290a66.5,66.5,0,0,1-23.31,1.1c-3.19-.48-5.23-4.48-6.16-7.57.27,3.39.11,10.13,2.77,12.24a9.73,9.73,0,0,0,6.7,2.24,61.6,61.6,0,0,0,14.17-1.92,10.62,10.62,0,0,0,4.32-1.88A4.13,4.13,0,0,0,294.19,290Z"></path></g></g><g id="freepik--Plants--inject-201"><path d="M152.27,261.29c-11.55,7.27-19.91,18.81-25.58,31.22s-8.88,25.79-12,39.06l1.83,66.94c12.06-25.08,21-54.12,21.74-81.94l-9.42-.05c6.19-1.48,11.08-6.46,14-12.13s4.1-12,5.27-18.27l-11.26,2.64A42.4,42.4,0,0,0,152.27,261.29Z" style="fill:#455a64"></path><g style="opacity:0.30000000000000004"><path d="M152.27,261.29c-11.55,7.27-19.91,18.81-25.58,31.22s-8.88,25.79-12,39.06l1.83,66.94c12.06-25.08,21-54.12,21.74-81.94l-9.42-.05c6.19-1.48,11.08-6.46,14-12.13s4.1-12,5.27-18.27l-11.26,2.64A42.4,42.4,0,0,0,152.27,261.29Z"></path></g><path d="M115.69,414.3s-33.54-34-36.1-68.85l12.33-1s-14.12-7.69-13.47-12.7S77.89,308,77.89,308l11.5,1.88s-8.8-3.52-10.41-10.12-.68-37.87-.68-37.87,14.93,13.28,20.39,27.72,18,30.76,18.48,76.09S115.69,414.3,115.69,414.3Z" style="fill:#455a64"></path><path d="M131.44,416.45s31.21-24.76,36.21-53.47l-10.13-1.87s12.34-5.21,12.22-9.42,2.42-19.61,2.42-19.61l-9.69.61s7.58-2.19,9.47-7.53,3.69-31.35,3.69-31.35-13.48,9.79-19.2,21.3-17.45,24-21.61,61.56S131.44,416.45,131.44,416.45Z" style="fill:#455a64"></path><path d="M89.29,293s0,.12.13.37l.36,1.1,1.33,4.26c.57,1.84,1.26,4.11,2,6.75s1.65,5.64,2.55,9c1.87,6.66,3.92,14.64,6.09,23.52s4.33,18.71,6.42,29.05,3.83,20.26,5.3,29.29,2.62,17.18,3.47,24.05c.46,3.43.8,6.54,1.12,9.27s.57,5.08.75,7,.32,3.4.42,4.44c0,.48.07.87.09,1.15a2.4,2.4,0,0,1,0,.4,2.42,2.42,0,0,1-.07-.39c0-.29-.09-.67-.15-1.15-.12-1-.29-2.53-.52-4.42s-.48-4.28-.83-7-.71-5.83-1.19-9.25c-.9-6.86-2.12-15-3.58-24s-3.28-18.92-5.34-29.26-4.28-20.15-6.38-29.05-4.15-16.86-6-23.53c-.88-3.35-1.74-6.35-2.48-9s-1.38-4.92-1.93-6.78-.94-3.27-1.23-4.28c-.13-.47-.23-.84-.31-1.11A2.41,2.41,0,0,1,89.29,293Z" style="fill:#263238"></path><path d="M113.33,437s-30.56-29.35-40.82-47.77l6.31-3.34c-4.68,1.18-9.71-.45-13.64-3.24s-7-6.64-10-10.43l8.5-2.17a32.19,32.19,0,0,1-20-13c10.31.82,20,5.64,28.14,12,6.62,5.15,12.36,11.28,17.91,17.57a63.82,63.82,0,0,1,7.22,9.9C102.44,405.8,112.37,425.37,113.33,437Z" style="fill:#455a64"></path><path d="M164,313.35a1.2,1.2,0,0,1-.1.33c-.09.24-.21.56-.35,1-.34.86-.81,2.09-1.42,3.65s-1.37,3.52-2.22,5.78S158,328.9,157,331.75c-2.12,5.7-4.54,12.53-7.11,20.14s-5.22,16.05-7.85,24.95-4.9,17.44-6.89,25.23-3.62,14.84-4.92,20.78c-.68,3-1.22,5.66-1.73,8s-.92,4.4-1.25,6.07-.61,2.92-.79,3.83l-.22,1a1.54,1.54,0,0,1-.09.33,1.24,1.24,0,0,1,0-.34c0-.26.09-.59.16-1,.17-.91.4-2.2.7-3.85s.68-3.72,1.17-6.09,1-5.07,1.65-8c1.26-5.95,2.88-13,4.82-20.82s4.25-16.35,6.85-25.26,5.33-17.33,7.9-24.95,5.05-14.43,7.21-20.11c1.06-2.86,2.08-5.41,3-7.66s1.65-4.18,2.31-5.75,1.14-2.77,1.5-3.62l.4-.94A2.85,2.85,0,0,1,164,313.35Z" style="fill:#263238"></path><path d="M335.24,429.22a6.93,6.93,0,0,1,5,2.06,12.2,12.2,0,0,1,2.86,4.73c1.21,3.38,1,7.51.28,11-3.85-1-6.5-4.83-7.72-6.85-1.93-3.18-3.48-10.1-.43-11" style="fill:#FEF2DC"></path><path d="M349.14,450.79a5.89,5.89,0,0,1-.77-5.88,7.82,7.82,0,0,1,4.39-4.17,3.27,3.27,0,0,1,2.78-.1,2.52,2.52,0,0,1,1.17,2.28,5.27,5.27,0,0,1-.88,2.51c-1.62,2.62-3.66,4.85-6.69,5.36" style="fill:#FEF2DC"></path><path d="M350.51,462.32a4.7,4.7,0,0,1-.23-.7c-.14-.51-.32-1.16-.55-1.94a20.84,20.84,0,0,1-1-6.59,12.79,12.79,0,0,1,2-6.35,8.88,8.88,0,0,1,1.3-1.55,4.38,4.38,0,0,1,.42-.36.67.67,0,0,1,.16-.11A11.74,11.74,0,0,0,349,453.1a22.54,22.54,0,0,0,.88,6.53c.21.83.37,1.5.47,2A3.91,3.91,0,0,1,350.51,462.32Z" style="fill:#263238"></path><path d="M336.88,434.38a1.53,1.53,0,0,1,.18.28c.12.2.27.47.45.8.4.7.95,1.71,1.62,3,1.35,2.52,3.16,6,5.08,10s3.56,7.53,4.72,10.15c.58,1.3,1,2.37,1.35,3.11l.35.85a2,2,0,0,1,.1.3s-.06-.09-.15-.28-.23-.49-.4-.83l-1.42-3.08c-1.2-2.6-2.88-6.18-4.79-10.11s-3.7-7.45-5-10l-1.55-3c-.16-.33-.3-.61-.41-.82A2.55,2.55,0,0,1,336.88,434.38Z" style="fill:#263238"></path><path d="M345.43,455a13.87,13.87,0,0,0-11.24-5.75c-1.12,0-2.43.31-2.84,1.35s.35,2.16,1.17,2.92a11.81,11.81,0,0,0,13,1.78" style="fill:#FEF2DC"></path><path d="M336.12,452.12a3.22,3.22,0,0,1,.7,0,5.93,5.93,0,0,1,.82,0c.31,0,.68,0,1.07.11s.84.13,1.3.25a14.24,14.24,0,0,1,1.45.42,14.13,14.13,0,0,1,5.76,3.73,12.17,12.17,0,0,1,1,1.16c.29.37.52.75.74,1.09a10.43,10.43,0,0,1,.52.95c.15.28.25.53.34.74a2.82,2.82,0,0,1,.23.66s-.4-.91-1.25-2.25c-.22-.33-.46-.7-.75-1.06s-.62-.74-1-1.13a15.55,15.55,0,0,0-2.62-2.16,16,16,0,0,0-3.05-1.51,13.39,13.39,0,0,0-1.43-.43,11.63,11.63,0,0,0-1.27-.27C337.12,452.15,336.12,452.18,336.12,452.12Z" style="fill:#263238"></path><polygon points="156.56 448.04 128.4 431.99 78.93 450 38.97 482.76 180.32 482.04 156.56 448.04" style="fill:#f5f5f5"></polygon><polygon points="38.97 482.76 89.66 453.35 156.56 448.04 127.27 430.69 78.93 450 38.97 482.76" style="fill:#e0e0e0"></polygon><polygon points="111.8 482.39 137.11 465.04 160.2 463.4 140.89 467.69 130.88 482.29 111.8 482.39" style="fill:#e0e0e0"></polygon><path d="M39,482.76a1,1,0,0,1,.18-.17l.54-.48c.51-.43,1.23-1,2.14-1.81L50,473.52l28.78-23.73,0,0h0l35.26-14.32,13-5.27.14-.05.13.07,29.34,17.64,0,0,0,0c7.1,10.25,13,18.76,17.16,24.74,2,3,3.63,5.31,4.75,6.93.53.78.94,1.39,1.23,1.84s.41.64.41.64-.17-.2-.47-.6l-1.3-1.79-4.87-6.84-17.34-24.63.08.08L127.05,430.7l.27,0-13,5.27L79,450.26l.07,0L50.19,473.78c-3.52,2.84-6.31,5.09-8.24,6.66-1,.74-1.68,1.32-2.2,1.74l-.57.44A1,1,0,0,1,39,482.76Z" style="fill:#263238"></path><path d="M161,463.34a11.82,11.82,0,0,1-1.83.24l-5,.45-17,1.31.15,0-2.78,1.91c-6.22,4.26-11.87,8.1-16,10.84l-4.88,3.23-1.35.85a2,2,0,0,1-.49.27s.13-.14.42-.37l1.28-.94,4.78-3.39c4-2.84,9.65-6.73,15.88-11l2.78-1.91.07-.05h.08l17-1.11,5.06-.27A11.26,11.26,0,0,1,161,463.34Z" style="fill:#263238"></path><path d="M388,422.42a37.05,37.05,0,0,1,13.22-34.74s2.89-1,2.57,2.23c-.2,1.92,1.58,4.68,3.14,3.54,2.72-2,2-6.19,3.2-9.32,1.44-3.67,5.42-5.55,9.07-7,6.73-2.76,13.56-5.42,20.75-6.54s14.81-.6,21.25,2.76l-5,9.44a3.35,3.35,0,0,1-4.3,2l-8.64-.85c-1.26-.12-2.89,0-3.28,1.18-.44,1.35,1.16,2.41,2.49,2.92l9,3.49a29.09,29.09,0,0,1-12.26,9.72A87.85,87.85,0,0,1,424.14,406c-1.64.41-3.39.82-5,.26-2.63-.91-4.38-4.27-7.14-3.93a11.48,11.48,0,0,0,4.06,7.92c-10.81,3.94-18.4,8.9-28.09,12.18" style="fill:#455a64"></path><path d="M377.64,469.75a1.09,1.09,0,0,0,.09-.28l.2-.81c.18-.76.43-1.81.74-3.14l2.62-11.59,1.79-8,1-4.46c.17-.77.34-1.55.52-2.34s.27-1.6.41-2.42c1.15-6.5,2.51-13.74,5.86-20.6s8.66-12.08,13.67-16.34a112.4,112.4,0,0,1,14.37-10.1c4.29-2.59,7.85-4.53,10.29-5.9L432,382.2l.73-.42c.16-.1.25-.15.24-.16l-.26.11-.75.38-2.87,1.48c-2.48,1.32-6.07,3.21-10.39,5.77a111.29,111.29,0,0,0-14.49,10,70.41,70.41,0,0,0-7.51,7.23,42.66,42.66,0,0,0-6.32,9.25c-3.38,6.95-4.73,14.24-5.86,20.75-.14.81-.27,1.62-.4,2.42s-.34,1.56-.5,2.33c-.34,1.53-.66,3-1,4.46-.62,2.88-1.2,5.57-1.72,8-1,4.87-1.87,8.83-2.46,11.61-.28,1.35-.49,2.41-.65,3.17-.06.34-.11.61-.15.82A1.58,1.58,0,0,0,377.64,469.75Z" style="fill:#263238"></path><path d="M380.39,380.78l-.34.31c19.84-11.54,32.26-34.78,30.83-57.69-3.29.43-5.08,3.91-6.81,6.74s-5.12,5.66-8,4c-2.47-1.37-2.47-5.1-1-7.5s3.94-4,5.82-6.12c4.42-4.95,5.31-12.28,3.9-18.77s-4.81-12.32-8.16-18.05a33.75,33.75,0,0,0-21.35,16.19c2.66,2.06,5.43,4.26,6.67,7.39s.2,7.41-3,8.51c-2.35.82-5-.38-6.65-2.25a18.66,18.66,0,0,1-3.22-6.66,97.81,97.81,0,0,0-4.53,35.92c3-2.84,9.05.21,8.54,4.33s-7.08,5.63-9.33,2.14A91.54,91.54,0,0,0,380.39,380.78Zm.71-53.28a3.19,3.19,0,0,1-1.91,2.54,5.46,5.46,0,0,1-4.59-.12,8.65,8.65,0,0,1-3.44-3.19,6.59,6.59,0,0,1-1.1-2.67,3.41,3.41,0,0,1,.73-2.71,2.31,2.31,0,0,1,2.64-.63,15.68,15.68,0,0,1,6,3.63A4.34,4.34,0,0,1,381.1,327.5Z" style="fill:#455a64"></path><path d="M373.33,469.64s0-.12,0-.36,0-.61.07-1c.06-1,.15-2.32.25-4.06.23-3.56.56-8.65,1-14.94.87-12.6,2.18-30,4.07-49.2s3.95-36.52,5.64-49c.82-6.27,1.56-11.33,2.07-14.82.24-1.73.43-3.08.56-4,.06-.44.1-.79.14-1.05a2,2,0,0,0,0-.36s0,.12-.08.35-.1.61-.18,1c-.16.95-.38,2.3-.66,4-.57,3.49-1.37,8.54-2.23,14.8-1.79,12.51-3.93,29.84-5.8,49s-3.14,36.61-3.91,49.23c-.38,6.31-.64,11.41-.8,15-.06,1.74-.12,3.1-.15,4.06,0,.45,0,.8,0,1.06A1.41,1.41,0,0,0,373.33,469.64Z" style="fill:#263238"></path><polygon points="382.99 464.43 366.06 457.74 337.85 462.87 324.17 481.25 391.13 481.3 382.99 464.43" style="fill:#f5f5f5"></polygon><path d="M337.85,462.87c.82-.15,45.14,1.56,45.14,1.56l-16.93-6.69Z" style="fill:#e0e0e0"></path><path d="M324.17,481.25a2.1,2.1,0,0,1,.22-.36l.7-1,2.73-3.78,9.81-13.38.06-.09.11,0,21-3.85,7.22-1.3.08,0,.08,0,16.91,6.74.09,0,0,.09L389,476.64l1.58,3.43c.16.37.29.66.39.91a1.46,1.46,0,0,1,.12.32s-.08-.09-.18-.29-.28-.52-.47-.87l-1.7-3.38-6-12.22.13.13L366,458l.17,0-7.22,1.31-21,3.78.16-.1-10,13.25L325.23,480l-.77,1C324.28,481.15,324.19,481.26,324.17,481.25Z" style="fill:#263238"></path></g><g id="freepik--Floor--inject-201"><path d="M481.13,482.25c0,.14-103.21.26-230.51.26s-230.54-.12-230.54-.26,103.2-.26,230.54-.26S481.13,482.1,481.13,482.25Z" style="fill:#263238"></path></g></svg>