<svg xmlns="http://www.w3.org/2000/svg" viewBox="0 0 500 500"><g id="freepik--Shadow--inject-6"><ellipse cx="138.32" cy="462.36" rx="96.78" ry="9.27" style="fill:#ebebeb"></ellipse></g><g id="freepik--Floor--inject-6"><polygon points="44.45 441.39 95.84 441.15 147.23 441.06 250 440.89 352.77 441.06 404.16 441.15 455.55 441.39 404.16 441.64 352.77 441.73 250 441.89 147.23 441.73 95.84 441.64 44.45 441.39" style="fill:#263238"></polygon></g><g id="freepik--Plant--inject-6"><path d="M407.61,352.12s-9.13-14-29.58-11.29c-19.43,2.59-31.52,36.63-12.69,42.63s18.49-26.6,26-31.42C396.87,348.51,404.18,350.07,407.61,352.12Z" style="fill:#6206A7"></path><path d="M360.77,358.41a40.4,40.4,0,0,1,4.42-2.77,18.17,18.17,0,0,1,4.61-1.77,25.31,25.31,0,0,1,9.43-7.36l-.59-.09a31,31,0,0,0-3.19-.27,17.87,17.87,0,0,0-6.32,1,.09.09,0,1,1-.06-.18,28,28,0,0,1,6.34-1.27,18.41,18.41,0,0,1,3.15,0c.56.06,1.12.15,1.67.26l.32.06a27.23,27.23,0,0,1,6-1.58l-.54-.2a27.29,27.29,0,0,0-2.92-.77,23.25,23.25,0,0,0-6-.47c-.12,0-.14-.19,0-.2a38.61,38.61,0,0,1,6.08.33,25.5,25.5,0,0,1,5,1.13,28.34,28.34,0,0,1,3.69-.07c7,.37,14.36,3.7,18.11,9.84s3.87,13.88,4,20.88a154.67,154.67,0,0,1-2,29.16c-.1.57-.89.39-.85-.16.51-8.25,1-16.5,1-24.77,0-3.83-.05-7.68-.32-11.5a34,34,0,0,0-1.87-9.62,17.3,17.3,0,0,0-6.07-7.9,22.94,22.94,0,0,0-9.29-3.85,26,26,0,0,0-9,0,6.29,6.29,0,0,1-.12,1.78,9.44,9.44,0,0,1-.65,2.14,11.55,11.55,0,0,1-1,1.86c-.43.66-1,1.23-1.43,1.84-.08.1-.23,0-.15-.12a9.15,9.15,0,0,0,1.93-3.8,17.27,17.27,0,0,0,.43-2c.08-.51.08-1,.15-1.54a26.67,26.67,0,0,0-9.17,3.78c-.53.35-1,.71-1.53,1.09a10.14,10.14,0,0,1,1.5,2.25,21.21,21.21,0,0,1,1.48,3.34A27.36,27.36,0,0,1,378,364a.1.1,0,0,1-.2,0,20.12,20.12,0,0,0-1.65-6.81,26.76,26.76,0,0,0-1.49-3.1c-.29-.52-.6-1-.92-1.52-.17-.27-.36-.54-.52-.82a27.86,27.86,0,0,0-6.44,7.45l0,0a13.81,13.81,0,0,1,2,3.59,32.07,32.07,0,0,1,1.49,4.19,66.25,66.25,0,0,1,1.61,8.38c0,.12-.17.14-.19,0a34.07,34.07,0,0,0-2.07-8.31c-.48-1.31-1-2.6-1.55-3.88a35.76,35.76,0,0,1-1.54-3.68,25.94,25.94,0,0,0-3.17,9.05c0,.12-.21.09-.19,0a32.59,32.59,0,0,1,5.85-13.8c-1.28.4-2.55.79-3.79,1.31a20.31,20.31,0,0,0-4.44,2.53C360.78,358.65,360.67,358.48,360.77,358.41Z" style="fill:#263238"></path><path d="M375.38,360.54c.41,2,1,4,1.34,6.07a23,23,0,0,1,.32,6c0,.05-.09.05-.09,0a57.19,57.19,0,0,0-1.76-12A.1.1,0,1,1,375.38,360.54Z" style="fill:#263238"></path><path d="M363.17,354.44A11.06,11.06,0,0,1,366,352.8a19.48,19.48,0,0,1,3.18-.8c.11,0,.14.18,0,.19a12.38,12.38,0,0,0-3.07.94,23.13,23.13,0,0,0-2.87,1.41A.06.06,0,1,1,363.17,354.44Z" style="fill:#263238"></path><path d="M397.72,335.84s-1.92-23.51-19.4-31.13c-14.6-6.37-23,10-12.64,20.08C374,332.91,387.42,329.25,397.72,335.84Z" style="fill:#6206A7"></path><path d="M368.92,309.26a74.49,74.49,0,0,1,7.77,3.68,58,58,0,0,1,6,4c-.29-.59-.54-1.22-.84-1.8-.45-.91-.94-1.79-1.48-2.66a25.17,25.17,0,0,0-3.85-4.87c-.09-.09.05-.22.14-.13a38.78,38.78,0,0,1,4.05,4.72,26.91,26.91,0,0,1,1.66,2.66,10.28,10.28,0,0,1,1.17,2.7l.2.15a57.51,57.51,0,0,1,8.35,8.16c-.05-.23-.1-.46-.16-.67-.33-1.15-.68-2.28-1.06-3.42a28.77,28.77,0,0,0-3.16-6.85.1.1,0,0,1,.17-.1,54.89,54.89,0,0,1,3.66,6.69,26.52,26.52,0,0,1,1.21,3.48,14.82,14.82,0,0,1,.57,2.36c.76,1,1.51,1.94,2.21,2.94,7.51,10.69,11.27,23.61,12.18,36.54a111.87,111.87,0,0,1,.19,11.58,73.06,73.06,0,0,1-1,11.63c-.05.24-.43.17-.42-.07.08-3.4.44-6.78.5-10.18a99.41,99.41,0,0,0-.33-10.21,95.31,95.31,0,0,0-3.81-20A71.72,71.72,0,0,0,394,330.78c-.74-.14-1.47-.34-2.19-.53s-1.75-.45-2.62-.69a26.59,26.59,0,0,1-4.87-1.79.09.09,0,1,1,.1-.16,15.74,15.74,0,0,0,4.94,1.7c1.37.27,2.79.45,4.16.77a63.76,63.76,0,0,0-4.06-5.35,30,30,0,0,1-9.95-.74,41.59,41.59,0,0,1-5.09-1.58c-1.75-.68-3.41-1.54-5.13-2.27-.13-.05,0-.24.07-.17a29.36,29.36,0,0,0,10.09,3.3,62,62,0,0,0,9.43.78c-1.24-1.43-2.53-2.81-3.9-4.12-4.59-4.37-10-8.39-16.09-10.48C368.74,309.41,368.8,309.21,368.92,309.26Z" style="fill:#263238"></path><path d="M383.14,309.33a27.68,27.68,0,0,1,2.15,3.14,17.76,17.76,0,0,1,1.54,3.65s-.05.06-.07,0c-.59-1.15-1.08-2.35-1.67-3.49a16.79,16.79,0,0,0-2.09-3.18C382.93,309.37,383.07,309.24,383.14,309.33Z" style="fill:#263238"></path><path d="M366.89,317.16a17.84,17.84,0,0,0,3.58,1.5,33.32,33.32,0,0,0,3.65,1c.06,0,.05.11,0,.1a17.36,17.36,0,0,1-3.78-.83,30.3,30.3,0,0,1-3.54-1.58C366.68,317.27,366.78,317.1,366.89,317.16Z" style="fill:#263238"></path><path d="M410.35,332.38c.11,1,2.64-8.54,17.42-17,13.43-7.7,29.45-27.74,16.29-40.39C433.43,264.75,405.44,287,410.35,332.38Z" style="fill:#6206A7"></path><path d="M400.17,387.15a261.92,261.92,0,0,1,2.35-29.73,134.27,134.27,0,0,1,6.24-26.6c1.1-3.11,2.36-6.16,3.72-9.18a21.6,21.6,0,0,1,.06-3.51c.08-1.51.21-3,.35-4.51s.29-3,.47-4.5.5-3,.56-4.48c0-.14.22-.11.19,0a31.52,31.52,0,0,0-.53,4.76c-.12,1.45-.2,2.9-.25,4.35s0,2.91,0,4.37c0,.52,0,1.08,0,1.64,1.39-2.94,2.88-5.83,4.5-8.65-1-6.13.3-12.53,1.55-18.52,0-.12.21-.07.18.05a52.24,52.24,0,0,0-1,9.5c-.06,2.52.06,5,.07,7.55.35-.6.71-1.21,1.07-1.8,1.92-3.13,4-6.2,6.14-9.18a14.17,14.17,0,0,1,.14-4.36,35.49,35.49,0,0,1,1.07-4.78c.48-1.56,1-3.1,1.64-4.61s1.49-3,2.11-4.59c.05-.13.25,0,.17.08a23,23,0,0,0-1.85,4.64,45.07,45.07,0,0,0-1.21,4.6c-.31,1.55-.56,3.11-.78,4.69-.15,1-.24,2.11-.42,3.16a114.23,114.23,0,0,1,10.35-12c.09-.09.22.05.13.14a136,136,0,0,0-15,20.44c-.17.27-.32.55-.48.83.82-.52,1.75-.92,2.52-1.35,1.43-.79,2.86-1.58,4.31-2.36l4.18-2.29c.72-.4,1.43-.82,2.16-1.19a17,17,0,0,0,2.5-1.39c.11-.08.23.09.11.16-1.42.78-2.68,1.94-4.05,2.82s-2.78,1.73-4.22,2.53c-2.63,1.46-5.48,2.52-8.07,4-1.79,3.14-3.44,6.37-5,9.65,1.57-1,3.17-2,4.8-2.87,1.05-.59,2.1-1.17,3.16-1.73a15.55,15.55,0,0,0,3-1.8c.09-.08.22.06.13.14a27.62,27.62,0,0,1-5.68,3.95c-1.9,1.11-3.82,2.18-5.79,3.15-1.58,3.46-3,7-4.28,10.58-6.22,17.62-8.51,36.32-9.6,54.89-.32,5.54-.49,11.07-.56,16.62s.22,11.07.21,16.6c0,.17-.27.21-.29,0-.67-4.91-.78-9.91-1-14.85S400.06,392.18,400.17,387.15Z" style="fill:#263238"></path><path d="M427,307.39a71.08,71.08,0,0,0,7.85-4.06,83.79,83.79,0,0,0,7.46-4.73s.09,0,.05.06a60.88,60.88,0,0,1-7.16,5,70.16,70.16,0,0,1-8.11,3.89C427,307.61,426.91,307.44,427,307.39Z" style="fill:#263238"></path><path d="M422.75,287.48c.21-.86.49-1.71.77-2.54a.08.08,0,0,1,0-.1c.18-.48.38-.95.57-1.42l.07-.17a2.33,2.33,0,0,0,.11-.28s.06,0,.05,0-.09.33-.14.49a2.76,2.76,0,0,1-.08.27,68.85,68.85,0,0,0-2.19,10c0,.1-.18.11-.18,0A33.7,33.7,0,0,1,422.75,287.48Z" style="fill:#263238"></path><path d="M407.69,357.84c5.15-16,16.79-25.5,31.76-23.3S459.5,356.44,449.5,363s-22.83-6.66-28.92-8.88S407.69,357.84,407.69,357.84Z" style="fill:#6206A7"></path><path d="M406.32,398.69c-.22-1.81-.4-3.62-.6-5.44-.38-3.62-.78-7.24-1.16-10.86-.69-6.62-.9-13.19,1-19.65a29.93,29.93,0,0,1,9.65-15,24.65,24.65,0,0,1,5.7-3.49,14.38,14.38,0,0,1,6.53-4.9,29.22,29.22,0,0,1,10.07-1.69c.12,0,.14.18,0,.19a24.47,24.47,0,0,0-9.46,2,19.76,19.76,0,0,0-3.64,2.05,17.56,17.56,0,0,0-2,1.73,20.84,20.84,0,0,1,8.79-1.17,19.1,19.1,0,0,1,3.18.57,9,9,0,0,1,2.37-.54,14,14,0,0,1,3.17,0,23.72,23.72,0,0,1,6.28,1.73.1.1,0,0,1-.08.18,22.14,22.14,0,0,0-6.08-1.35,19,19,0,0,0-3,0,13.14,13.14,0,0,0-1.65.25,19.26,19.26,0,0,1,10.61,7.92c.06.11-.09.22-.16.12a17.61,17.61,0,0,0-13.18-7.8c-.33,0-.66,0-1-.05A13,13,0,0,1,432,345c.2.71.43,1.42.68,2.12a36.17,36.17,0,0,0,1.79,4.21,34,34,0,0,0,2.34,4,20.75,20.75,0,0,0,3,3.76c.1.09-.05.23-.14.13-1.05-1.23-2.24-2.33-3.22-3.62a31.1,31.1,0,0,1-2.55-3.9,29.64,29.64,0,0,1-1.92-4.31c-.27-.78-.51-1.58-.72-2.38a5.65,5.65,0,0,1-.3-1.47,19.67,19.67,0,0,0-5.12.62c1.15,3.48,2.36,7.1,4.81,9.92.08.09-.08.22-.16.11a41,41,0,0,1-3.19-4.75,19.37,19.37,0,0,1-2-5.14,23.54,23.54,0,0,0-8,4,28,28,0,0,0-9.47,13.88,46.56,46.56,0,0,0-1.65,18.19c.61,7.72,1.61,15.43,1.93,23.17,0,.5-.74.78-.92.23A27.28,27.28,0,0,1,406.32,398.69Z" style="fill:#263238"></path><path d="M416,346.43a8.34,8.34,0,0,1,1.44-1.76,21.67,21.67,0,0,1,1.65-1.67,13.65,13.65,0,0,1,3.86-2.51c.11-.05.19.13.07.18a10.92,10.92,0,0,0-3.79,2.58q-.82.81-1.56,1.68a11,11,0,0,1-1.47,1.65C416.14,346.66,416,346.55,416,346.43Z" style="fill:#263238"></path><path d="M440.05,348.54a43.43,43.43,0,0,1,4,3.94,27.13,27.13,0,0,1,3.19,4.57c0,.05,0,.09-.08.05a60.13,60.13,0,0,0-7.19-8.41C439.84,348.61,440,348.46,440.05,348.54Z" style="fill:#263238"></path><path d="M424.18,349.29a10.73,10.73,0,0,0,1.21,2.59,17.44,17.44,0,0,0,1.73,2.2c0,.05,0,.11-.08.08a9.88,9.88,0,0,1-3-4.8C424,349.25,424.14,349.17,424.18,349.29Z" style="fill:#263238"></path><polygon points="384.56 390.72 385.61 403.22 388.84 441.35 423.43 441.35 426.65 403.22 427.71 390.72 384.56 390.72" style="fill:#455a64"></polygon><polygon points="384.56 390.72 385.61 403.22 426.65 403.22 427.71 390.72 384.56 390.72" style="fill:#263238"></polygon><rect x="381.16" y="385.7" width="49.94" height="11.99" transform="translate(812.26 783.4) rotate(180)" style="fill:#455a64"></rect></g><g id="freepik--Device--inject-6"><path d="M334.51,58.11h-169a17.26,17.26,0,0,0-17.11,17.42v348A17.27,17.27,0,0,0,165.47,441h169a17.28,17.28,0,0,0,17.13-17.42v-348A17.27,17.27,0,0,0,334.51,58.11Zm6.43,354.67c0,9.16-6.86,16.57-15.32,16.57H174.39c-8.49,0-15.34-7.41-15.34-16.57V88.72c0-18.66,6.85-19.57,15.34-19.57h30.29c1.76,0,3.2,2,3.2,4.48V74.7c0,5.81,3.18,5.83,7.09,5.83h70c4,0,7.09,0,7.09-5.83V73.63c0-2.48,1.42-4.48,3.22-4.48h30.29c8.46,0,15.32,2.48,15.32,19.57Z" style="fill:#263238"></path><path d="M259.55,73.27H240.44a1.18,1.18,0,0,1-1.18-1.18h0a1.18,1.18,0,0,1,1.18-1.18h19.11a1.18,1.18,0,0,1,1.18,1.18h0A1.18,1.18,0,0,1,259.55,73.27Z" style="fill:#fff"></path><path d="M340.94,88.72V412.78c0,9.16-6.86,16.57-15.32,16.57H174.39c-8.49,0-15.34-7.41-15.34-16.57V88.72c0-18.66,6.85-19.57,15.34-19.57h30.29c1.76,0,3.2,2,3.2,4.48V74.7c0,5.81,3.18,5.83,7.09,5.83h70c4,0,7.09,0,7.09-5.83V73.63c0-2.48,1.42-4.48,3.22-4.48h30.29C334.08,69.15,340.94,71.63,340.94,88.72Z" style="fill:#fff"></path><path d="M335.84,72h-43.5c.47-1.65,1.62-2.82,3-2.82h30.31C329.55,69.14,333.13,69.68,335.84,72Z" style="fill:#dbdbdb"></path><path d="M159.05,396.81v4.31h15.06v-4.31ZM340.94,130,292,181.86H269.48V139h8.95v-4.34H265.14v47.19H240.73V80.53h-8.66v30.36h-73v8.66h73v62.31H161.33v17h-2.28v4.34h2.28v64.39l13,29.78H159.05v8.66h19.09l10.19,23.29a30.82,30.82,0,0,0,9.79,59h0L219.31,423l-6.39,6.39h20.46l-25.54-41.72a30.84,30.84,0,0,0,21.62-40.94l60.44-28.75h51v-8.65H316.73L266,254.17h74.92v-4.33H262l-54.56-59.32h88.24l29.82-31.62,15.4,15.4V162.06l-9.44-9.45,9.44-10ZM200.62,379.84a22.2,22.2,0,1,1,22.19-22.2A22.22,22.22,0,0,1,200.62,379.84ZM305,309.29H288L225.27,339.1a30.89,30.89,0,0,0-24.65-12.3,32.75,32.75,0,0,0-3.85.24L170,265.79V190.52H195.7Zm6.44,120.06h6.13l23.4-23.41v-6.13Z" style="fill:#ebebeb"></path><rect x="177.41" y="197.08" width="12.59" height="12.59" style="fill:#dbdbdb"></rect><polygon points="308.19 245.34 308.19 221.04 299.35 221.04 299.35 210.88 283.78 210.88 283.78 245.34 308.19 245.34" style="fill:#dbdbdb"></polygon><polygon points="265.02 80.53 265.02 104.97 251.84 104.97 251.84 90.09 244.71 90.09 244.71 80.53 265.02 80.53" style="fill:#dbdbdb"></polygon><path d="M340.94,88.71v8.43h-11V75.93h8.86C340.16,78.83,340.94,82.94,340.94,88.71Z" style="fill:#dbdbdb"></path><polygon points="272.89 178.19 272.89 160.12 306.75 160.12 288.46 178.41 272.89 178.19" style="fill:#dbdbdb"></polygon><rect x="244.72" y="161.4" width="17.01" height="17.01" style="fill:#dbdbdb"></rect><rect x="207.51" y="122.94" width="20.49" height="18.85" style="fill:#dbdbdb"></rect><polygon points="228.01 145.49 228.01 178.41 202.94 178.41 186.96 162.43 186.96 145.49 228.01 145.49" style="fill:#dbdbdb"></polygon><polygon points="182.44 166.06 195.03 178.65 161.43 178.65 161.43 166.06 182.44 166.06" style="fill:#dbdbdb"></polygon><polygon points="180.64 325.13 159.05 325.13 159.05 309.97 174.53 309.97 180.64 325.13" style="fill:#dbdbdb"></polygon><path d="M174.76,383.56v7.28H159.05V358.46h4.29A46.77,46.77,0,0,0,174.76,383.56Z" style="fill:#dbdbdb"></path><path d="M250,320.66l-13.17-28.45h-16l-27.4,12.71,7.16,15.63h.06a37,37,0,0,1,26,10.64Z" style="fill:#dbdbdb"></path><polygon points="340.94 285.23 340.94 304.12 320.34 304.12 302.96 285.23 340.94 285.23" style="fill:#dbdbdb"></polygon><path d="M211.55,421.37l-7.54,8H174.38a14.7,14.7,0,0,1-3.27-.38v-9h12.82V400.15l9.65-8.12Z" style="fill:#dbdbdb"></path><path d="M272.56,388l-26-27.1-10,7.79a37.66,37.66,0,0,1-18.43,22.2l21.73,35.52Z" style="fill:#dbdbdb"></path><polygon points="244.25 348.99 289.9 326.42 312.67 326.42 312.67 366.12 277.17 383.65 244.25 348.99" style="fill:#dbdbdb"></polygon><path d="M340.92,413.51c-.31,8-5.88,14.52-13.05,15.66h-2.61Z" style="fill:#dbdbdb"></path><polygon points="177.41 214.92 177.41 264.81 191.33 298.87 216.73 286.28 275.98 286.28 209.54 214.92 177.41 214.92" style="fill:#6206A7"></polygon><polygon points="321.9 143.56 272.89 143.56 272.89 155.84 310.32 155.84 321.9 143.56" style="fill:#dbdbdb"></polygon><polygon points="167.8 293.31 159.05 293.31 159.05 273.04 167.8 293.31" style="fill:#dbdbdb"></polygon><rect x="318.98" y="326.42" width="21.96" height="25.96" style="fill:#dbdbdb"></rect><rect x="318.98" y="356.43" width="21.96" height="9.11" style="fill:#dbdbdb"></rect><polygon points="313.52 420.56 304.73 429.35 247.02 429.35 277.57 392.04 313.52 420.56" style="fill:#dbdbdb"></polygon><polygon points="316.67 416.27 331.5 402.04 313.51 386.38 313.51 372.3 281.81 388.45 316.67 416.27" style="fill:#6206A7"></polygon><polygon points="340.94 369.56 340.94 391.64 335.06 397.17 318.98 383.65 318.98 369.56 340.94 369.56" style="fill:#dbdbdb"></polygon><path d="M164.69,406.07v19.55a17.07,17.07,0,0,1-5.64-12.84v-6.71Z" style="fill:#dbdbdb"></path><rect x="171.11" y="408.12" width="7.64" height="7.64" style="fill:#dbdbdb"></rect><path d="M226.69,80.53V105.7H178.23V76.89l8.43-7.75h18c1.75,0,3.19,2,3.19,4.49V74.7c0,5.81,3.19,5.83,7.09,5.83Z" style="fill:#dbdbdb"></path><rect x="159.05" y="90.24" width="15.08" height="15.44" style="fill:#dbdbdb"></rect><path d="M174.13,77.62v8.63h-15a35.82,35.82,0,0,1,1.21-8.63Z" style="fill:#dbdbdb"></path><path d="M182.11,69.14l-5.33,5h-15c2.76-4.65,7.38-5,12.61-5Z" style="fill:#dbdbdb"></path><polygon points="278.77 259.41 299.35 281.02 318.98 281.02 318.98 259.41 278.77 259.41" style="fill:#dbdbdb"></polygon><rect x="323.06" y="271.09" width="17.88" height="9.94" style="fill:#dbdbdb"></rect><rect x="323.06" y="259.41" width="10.51" height="9.03" style="fill:#dbdbdb"></rect><rect x="336.19" y="259.41" width="4.75" height="9.03" style="fill:#dbdbdb"></rect><polygon points="243 292.21 275.98 292.21 275.98 307.98 254.89 317.55 243 292.21" style="fill:#dbdbdb"></polygon><circle cx="200.63" cy="357.77" r="14.8" style="fill:#6206A7"></circle><rect x="159.05" y="122.94" width="7.92" height="11.37" style="fill:#dbdbdb"></rect><polygon points="182.07 161.96 182.07 122.95 169.99 122.95 169.99 154.31 161.43 154.31 161.43 161.96 182.07 161.96" style="fill:#dbdbdb"></polygon><rect x="186.96" y="122.94" width="17.11" height="17.8" style="fill:#dbdbdb"></rect><rect x="159.05" y="136.5" width="7.92" height="14.37" style="fill:#dbdbdb"></rect><rect x="311.87" y="221.04" width="25.42" height="24.31" style="fill:#dbdbdb"></rect><polygon points="219.05 194.86 245.57 223.72 278.86 223.72 278.86 194.86 219.05 194.86" style="fill:#dbdbdb"></polygon><polygon points="249.35 227.05 266.18 245.35 278.77 245.35 278.77 227.05 249.35 227.05" style="fill:#dbdbdb"></polygon><rect x="283.78" y="194.86" width="15.56" height="12.05" style="fill:#dbdbdb"></rect><polygon points="337.3 206.41 337.3 179.31 325 166.07 303.56 189.06 303.56 215.35 328.98 215.35 328.98 206.41 337.3 206.41" style="fill:#6206A7"></polygon><polygon points="340.94 149.37 340.94 156.64 337.43 153.2 340.94 149.37" style="fill:#dbdbdb"></polygon><polygon points="340.94 101.09 340.94 123.44 326.18 139.65 306.75 139.65 306.75 101.09 340.94 101.09" style="fill:#dbdbdb"></polygon><rect x="283.33" y="115.21" width="18.91" height="24.44" style="fill:#6206A7"></rect><path d="M326.18,75.93V97.14H302.23v15h-18.9V80.53H285c3.63,0,6.6,0,7-4.6Z" style="fill:#dbdbdb"></path><rect x="267.32" y="80.53" width="13.57" height="16.1" style="fill:#dbdbdb"></rect><rect x="244.72" y="107.61" width="36.18" height="17.79" style="fill:#dbdbdb"></rect><rect x="267.32" y="99.2" width="13.58" height="5.77" style="fill:#dbdbdb"></rect><polygon points="261.73 158 251.84 158 244.72 151.24 244.72 131.58 261.73 131.58 261.73 158" style="fill:#dbdbdb"></polygon><g id="freepik--u5Zjqx--inject-6"><path d="M199.45,76.43a4,4,0,0,0-.29.29l-.17.16a4,4,0,0,0-5.64,0l-.16-.17-.29-.29h0l0,0,.37-.33a4.46,4.46,0,0,1,.86-.54,4.18,4.18,0,0,1,1.13-.38,5.58,5.58,0,0,1,.57-.08h.5l.38,0a4.51,4.51,0,0,1,1,.25,4.58,4.58,0,0,1,.71.33,4.48,4.48,0,0,1,.67.47l.31.28Z" style="fill:#a6a6a6"></path><path d="M194.27,77.8l-.46-.46a3.31,3.31,0,0,1,1.88-.94,3.26,3.26,0,0,1,2.83.94c-.15.15-.3.31-.46.46a2.61,2.61,0,0,0-1.89-.78A2.65,2.65,0,0,0,194.27,77.8Z" style="fill:#a6a6a6"></path><path d="M197.6,78.26l-.46.46a1.4,1.4,0,0,0-1-.4,1.36,1.36,0,0,0-1,.41l-.46-.46A2,2,0,0,1,197.6,78.26Z" style="fill:#a6a6a6"></path><path d="M196.58,79.14a.41.41,0,0,1-.41.42.42.42,0,0,1-.42-.42.41.41,0,0,1,.42-.41A.41.41,0,0,1,196.58,79.14Z" style="fill:#a6a6a6"></path></g><path d="M170.9,77.31a1.21,1.21,0,1,1,1.21,1.21A1.2,1.2,0,0,1,170.9,77.31Z" style="fill:#a6a6a6"></path><path d="M174.7,77.31a1.21,1.21,0,1,1,1.21,1.21A1.2,1.2,0,0,1,174.7,77.31Z" style="fill:#a6a6a6"></path><path d="M178.5,77.31a1.21,1.21,0,1,1,1.2,1.21A1.2,1.2,0,0,1,178.5,77.31Z" style="fill:#a6a6a6"></path><path d="M182.3,77.31a1.21,1.21,0,1,1,1.2,1.21A1.2,1.2,0,0,1,182.3,77.31Z" style="fill:#a6a6a6"></path><path d="M186.09,77.31a1.21,1.21,0,1,1,1.21,1.21A1.2,1.2,0,0,1,186.09,77.31Z" style="fill:#a6a6a6"></path><rect x="317.73" y="75.65" width="9.31" height="4.05" style="fill:#a6a6a6"></rect><path d="M327.3,79.94h-9.82V75.4h9.82Zm-9.32-.5h8.82V75.9H318Z" style="fill:#fff"></path><rect x="318.3" y="76.17" width="6.33" height="3" style="fill:#a6a6a6"></rect><rect x="327.3" y="76.45" width="0.87" height="2.43" style="fill:#a6a6a6"></rect></g><g id="freepik--Route--inject-6"><polygon points="258.54 329.32 257.73 327.5 291.35 312.56 312.17 312.56 195.67 185.36 235.53 185.36 235.53 110.48 237.53 110.48 237.53 187.36 200.21 187.36 316.71 314.56 291.78 314.56 258.54 329.32" style="fill:#6206A7"></polygon><path d="M243.29,98.69C243,95.31,240.62,92,236.53,92s-6.41,3.36-6.75,6.74c-.51,5.21,3,9.94,6.75,14.25C240.29,108.63,243.81,103.9,243.29,98.69Zm-6.76,3.75a3.7,3.7,0,1,1,3.71-3.7A3.69,3.69,0,0,1,236.53,102.44Z" style="fill:#6206A7"></path><polygon points="253.53 341.41 253.44 331.04 245.09 324.89 265.51 325.15 253.53 341.41" style="fill:#37474f"></polygon><path d="M222,419.84l-22-37,1.58-.15A32,32,0,0,0,222,370.59c8.09-10.67.92-25.85.85-26l-.45-.91,32.47-14.84.83,1.82-30.63,14c1.52,3.64,6.25,17-1.48,27.15a33.78,33.78,0,0,1-20.39,12.62l20.45,34.39Z" style="fill:#37474f"></path><path d="M229.57,408.18c-.34-3.38-2.67-6.74-6.76-6.74s-6.41,3.36-6.75,6.74c-.51,5.21,3,9.94,6.75,14.25C226.57,418.12,230.09,413.39,229.57,408.18Zm-6.76,3.75a3.7,3.7,0,1,1,3.71-3.7A3.69,3.69,0,0,1,222.81,411.93Z" style="fill:#6206A7"></path></g></svg>