<svg xmlns="http://www.w3.org/2000/svg" viewBox="0 0 500 500"><g id="freepik--Floor--inject-60"><ellipse id="freepik--floor--inject-60" cx="250.64" cy="365.18" rx="240.31" ry="124.36" style="fill:#f5f5f5"></ellipse></g><g id="freepik--Clouds--inject-60"><g id="freepik--clouds--inject-60"><path d="M94.23,60.48l-8.3,4.78A10.13,10.13,0,0,0,86,64.17V61.76c0-4.27-3-6-6.7-3.87a13,13,0,0,0-4,3.85c-.6-5.38-4.82-7.38-10-4.43-5.54,3.2-10,11-10,17.38v3.59a9.51,9.51,0,0,0,.85,4.17l-6.89,4a8.22,8.22,0,0,0-3.72,6.44c0,2.37,1.67,3.33,3.72,2.14l45-25.94A8.24,8.24,0,0,0,98,62.62C98,60.25,96.28,59.29,94.23,60.48Z" style="fill:#ebebeb"></path><path d="M143.92,72.8l-6.26,3.61a7.86,7.86,0,0,0,.05-.83V73.77c0-3.23-2.26-4.54-5.06-2.92a9.74,9.74,0,0,0-3,2.9c-.46-4.06-3.64-5.57-7.51-3.34a16.74,16.74,0,0,0-7.57,13.11v2.72a7.13,7.13,0,0,0,.64,3.14l-5.2,3a6.21,6.21,0,0,0-2.81,4.86c0,1.79,1.26,2.52,2.81,1.62l33.92-19.58a6.21,6.21,0,0,0,2.81-4.86C146.73,72.63,145.47,71.9,143.92,72.8Z" style="fill:#ebebeb"></path></g></g><g id="freepik--Shadows--inject-60"><path id="freepik--Shadow--inject-60" d="M79.49,434.39,35.75,409.13c-2.47-1.42-2.47-3.73,0-5.15L280.51,262.83a9.89,9.89,0,0,1,8.93,0l43.75,25.26c2.46,1.42,2.46,3.73,0,5.15L88.42,434.39A9.89,9.89,0,0,1,79.49,434.39Z" style="fill:#e0e0e0"></path><path id="freepik--shadow--inject-60" d="M419,296.84c9.53,5.56,9.53,14.58,0,20.14s-25,5.57-34.51,0-9.53-14.58,0-20.14S409.44,291.27,419,296.84Z" style="fill:#e0e0e0"></path><path id="freepik--shadow--inject-60" d="M239.84,433.56l38.81-33.18a1.66,1.66,0,0,0-.27-2.88l-12.68-7.32a1.32,1.32,0,0,1,0-2.5l67.59-39a4.79,4.79,0,0,1,4.33,0l7.56,4.37a6,6,0,0,0,4.51.37l59.2-22.15a4.56,4.56,0,0,1,4.21.79l58.15,51.8a1.39,1.39,0,0,1-.48,2.54l-79.89,29.89a4.55,4.55,0,0,1-4.21-.78l-1.83-1.63a3.68,3.68,0,0,0-4-.41l-4.09,2.36c-1.2.69-1.12,1.66.16,2.16l9,3.5a1.38,1.38,0,0,1,.43,2.54l-53.54,45.77a4.59,4.59,0,0,1-4.23.72l-88.26-34.41A1.37,1.37,0,0,1,239.84,433.56Z" style="fill:#e0e0e0"></path></g><g id="freepik--Device--inject-60"><g id="freepik--device--inject-60"><path d="M227.05,395.14l37.6-21.75c3.88-2.23,5.82-5.17,5.82-8.1s0-5.23,0-5.23l-39-22a8.29,8.29,0,0,1-3.75-6.49V285.21l-65.68,38v46.37a8.25,8.25,0,0,0,3.74,6.48L199,395.14C206.73,399.61,219.3,399.61,227.05,395.14Z" style="fill:#FEF2DC"></path><g style="opacity:0.6000000000000001"><path d="M227.05,395.14l37.6-21.75c3.88-2.23,5.82-5.17,5.82-8.1s0-5.23,0-5.23l-39-22a8.29,8.29,0,0,1-3.75-6.49V285.21l-65.68,38v46.37a8.25,8.25,0,0,0,3.74,6.48L199,395.14C206.73,399.61,219.3,399.61,227.05,395.14Z"></path></g><path d="M177.81,377.74V383l-12-6.94a8.3,8.3,0,0,1-3.74-6.48V323.17L174.55,316c.25,3.17.54,6.46.8,9.66l-8.78,5.08v36.22a8.19,8.19,0,0,0,3.74,6.48Z" style="opacity:0.30000000000000004"></path><path d="M166.57,366.92a8.25,8.25,0,0,0,3.74,6.48L199,389.91c7.75,4.47,20.32,4.48,28.08,0l37.62-21.74c7.75-4.47,7.75-11.73,0-16.21L236,335.45a8.28,8.28,0,0,1-3.74-6.49V292.73l-65.68,38Z" style="fill:#FEF2DC"></path><path d="M166.57,366.92a8.25,8.25,0,0,0,3.74,6.48L199,389.91c7.75,4.47,20.32,4.48,28.08,0l37.62-21.74c7.75-4.47,7.75-11.73,0-16.21L236,335.45a8.28,8.28,0,0,1-3.74-6.49V292.73l-65.68,38Z" style="opacity:0.30000000000000004"></path><path d="M243.62,339.85h0l-7.62-4.4a8.28,8.28,0,0,1-3.74-6.49V292.73l-65.68,38v36.23a8.25,8.25,0,0,0,3.74,6.48l7.5,4.33Z" style="opacity:0.5"></path><path d="M270.48,360.06v5.23c0,2.94-2,5.86-5.82,8.11l-37.61,21.73a28.17,28.17,0,0,1-13.4,3.33v-5.21a28.17,28.17,0,0,0,13.4-3.33l37.61-21.75C268.53,365.94,270.48,363,270.48,360.06Z" style="fill:#FEF2DC"></path><path d="M270.48,360.06v5.23c0,2.94-2,5.86-5.82,8.11l-37.61,21.73a28.17,28.17,0,0,1-13.4,3.33v-5.21a28.17,28.17,0,0,0,13.4-3.33l37.61-21.75C268.53,365.94,270.48,363,270.48,360.06Z" style="opacity:0.5"></path><path d="M61.1,412a10,10,0,0,0,9.07-.17l254-146.66a10.34,10.34,0,0,0,4.67-8.1V25.72a10,10,0,0,0-4.39-7.94,10,10,0,0,0-9.06.17L61.4,164.61a10.32,10.32,0,0,0-4.68,8.1V404A10,10,0,0,0,61.1,412Z" style="fill:#FEF2DC"></path><path d="M70.17,411.78l254-146.66a10.35,10.35,0,0,0,4.68-8.11V25.71c0-3-2.1-4.19-4.68-2.7l-254,146.66a10.32,10.32,0,0,0-4.68,8.1v231.3C65.49,412.06,67.59,413.27,70.17,411.78Z" style="fill:#FEF2DC"></path><path d="M70.17,411.78l254-146.66a10.35,10.35,0,0,0,4.68-8.11V25.71c0-3-2.1-4.19-4.68-2.7l-254,146.66a10.32,10.32,0,0,0-4.68,8.1v231.3C65.49,412.06,67.59,413.27,70.17,411.78Z" style="opacity:0.5"></path><path d="M69.48,417.12a10.09,10.09,0,0,1-8.38-.18A10,10,0,0,1,56.71,409V390.28l8.78,5.08v18.71C65.49,416.79,67.22,418,69.48,417.12Z" style="fill:#FEF2DC"></path><path d="M69.48,417.12a10.09,10.09,0,0,1-8.38-.18A10,10,0,0,1,56.71,409V390.28l8.78,5.08v18.71C65.49,416.79,67.22,418,69.48,417.12Z" style="opacity:0.5"></path><path d="M65.49,395.36v18.7c0,3,2.1,4.2,4.68,2.7l254-146.65a10.35,10.35,0,0,0,4.68-8.11V243.26Z" style="fill:#FEF2DC"></path><path d="M65.49,395.32v18.74c0,3,2.1,4.2,4.68,2.7l254-146.65a10.35,10.35,0,0,0,4.68-8.11V243.26Z" style="opacity:0.30000000000000004"></path><path d="M74.27,371.88V180.69a6.23,6.23,0,0,1,2.81-4.87L317.28,37.14c1.55-.89,2.81-.17,2.81,1.62V230a6.21,6.21,0,0,1-2.81,4.86L77.08,373.51C75.53,374.4,74.27,373.67,74.27,371.88Z" style="fill:#FEF2DC"></path><path d="M74.27,371.88V180.69a6.23,6.23,0,0,1,2.81-4.87L317.28,37.14c1.55-.89,2.81-.17,2.81,1.62V230a6.21,6.21,0,0,1-2.81,4.86L77.08,373.51C75.53,374.4,74.27,373.67,74.27,371.88Z" style="fill:#263238"></path><path d="M66.87,173.14a10,10,0,0,0-1.38,4.63V395.36l-8.78-5.08V172.71a9.69,9.69,0,0,1,1.37-4.62Z" style="opacity:0.7000000000000001"></path><path d="M328.83,24.94c-.33-2.41-2.28-3.28-4.64-1.93l-254,146.66a9.5,9.5,0,0,0-3.31,3.48l-8.78-5.07a9.66,9.66,0,0,1,3.31-3.48L315.42,18a10,10,0,0,1,9.07-.17A10.1,10.1,0,0,1,328.83,24.94Z" style="opacity:0.30000000000000004"></path></g></g><g id="freepik--Window--inject-60"><g id="freepik--window--inject-60"><path d="M98.4,390.08a4,4,0,0,1-1.83.55,4.55,4.55,0,0,1-2.68-.47,5,5,0,0,1-2.18-4l0-178.6,4.39,2.53V388.73c0,1.06.53,1.67,1.29,1.67A2.37,2.37,0,0,0,98.4,390.08Z" style="fill:#f0f0f0"></path><path d="M339.83,248a5.14,5.14,0,0,1-2.33,4L98.4,390.08c-1.28.74-2.32.14-2.32-1.35V195l6.41-3.7c1.28-.74,3.37-12,4.66-12.79l55.6-32.1c1.29-.74,4.32,7.61,5.6,6.86l171.48-99V248Z" style="fill:#fafafa"></path><path d="M338.75,56.1V248a4.1,4.1,0,0,1-1.79,3.1L97.86,389.15a1.13,1.13,0,0,1-.49.17c-.22,0-.22-.56-.22-.59V195.61l5.88-3.4c.93-.54,1.51-2.35,2.82-7a34.79,34.79,0,0,1,1.92-5.82l55.1-31.81a21.61,21.61,0,0,1,1.75,2.79c1.5,2.64,2.34,4,3.56,4a1.36,1.36,0,0,0,.71-.2L338.75,56.1M163.28,147.33h0M339.83,54.24l-171.48,99a.34.34,0,0,1-.17.05c-1.3,0-4-7-5.26-7a.33.33,0,0,0-.17,0l-55.6,32.1c-1.29.75-3.38,12-4.66,12.79L96.08,195V388.73c0,1.06.52,1.67,1.29,1.67a2,2,0,0,0,1-.32L337.5,252a5.14,5.14,0,0,0,2.33-4V54.24Z" style="fill:#e0e0e0"></path><path d="M93.89,202.15a5,5,0,0,1-2.19-4V180A5.15,5.15,0,0,1,94,176l239.1-138a4.36,4.36,0,0,1,6.69,3.87V60a5.12,5.12,0,0,1-2.33,4L98.4,202.07A5,5,0,0,1,93.89,202.15Z" style="fill:#FEF2DC"></path><path d="M339.8,41.41c-.16-1.21-1.14-1.65-2.3-1L98.4,178.49a5.07,5.07,0,0,0-1.65,1.75l-4.37-2.53A4.86,4.86,0,0,1,94,176l239.1-138a4.34,4.34,0,0,1,6.67,3.49Z" style="fill:#fff;opacity:0.4"></path><path d="M96.75,180.24a4.72,4.72,0,0,0-.67,2.29v27.61l-4.39-2.53V180a2.62,2.62,0,0,1,0-.28,4.71,4.71,0,0,1,.09-.58,5.57,5.57,0,0,1,.58-1.44Z" style="opacity:0.1"></path><path d="M339.82,41.78V54.24l-171.48,99c-1.28.75-2.32.14-2.32-1.34v-4.72c0-1.48-1-2.09-2.34-1.34l-56.54,32.64a5.15,5.15,0,0,0-2.33,4v4.71a5.17,5.17,0,0,1-2.33,4L96.08,195V182.53a5.17,5.17,0,0,1,2.32-4l239.1-138C338.78,39.69,339.82,40.3,339.82,41.78Z" style="fill:#FEF2DC"></path><path d="M328.9,49.59c1.62-.93,2.93-.17,2.93,1.7a6.49,6.49,0,0,1-2.93,5.08c-1.62.93-2.94.17-2.94-1.7A6.5,6.5,0,0,1,328.9,49.59Z" style="fill:#fff"></path><path d="M318.34,55.68c1.62-.93,2.93-.18,2.93,1.69a6.47,6.47,0,0,1-2.93,5.08c-1.62.94-2.93.18-2.93-1.69A6.49,6.49,0,0,1,318.34,55.68Z" style="fill:#fff"></path><path d="M307.78,61.77c1.62-.94,2.93-.18,2.93,1.69a6.49,6.49,0,0,1-2.93,5.08c-1.62.93-2.93.18-2.93-1.69A6.47,6.47,0,0,1,307.78,61.77Z" style="fill:#fff"></path><path d="M339.83,54.24V69.39L96.08,210.14V195l4.79-2.77c1.28-.74,1.71-1.87,2.32-4l1.63-5.64c.51-2,1-3.29,2.33-4l55.6-32.1c1.29-.74,2.3-.82,3.28.8l2,3.62c.73,1.26,1.1,2,2.38,1.26Z" style="fill:#e6e6e6"></path><polygon points="96.08 194.98 96.08 210.14 91.69 207.61 91.69 192.47 96.08 194.98" style="fill:#e0e0e0"></polygon><path d="M106.77,196.08l-3.66,2.11,1.39-2.68a.68.68,0,0,0,0-.66c-.11-.13-.29,0-.42.2l-2,3.81v0s0,.09-.05.14,0,0,0,0a1.23,1.23,0,0,0,0,.19.72.72,0,0,0,0,.17s0,0,0,0a.56.56,0,0,0,.05.08h0l2,1.52a.16.16,0,0,0,.2,0,.55.55,0,0,0,.22-.28c.11-.25.09-.53,0-.62l-1.39-1.08,3.66-2.11a.77.77,0,0,0,.29-.62C107.06,196.11,106.93,196,106.77,196.08Z" style="fill:#455a64;opacity:0.5"></path><path d="M109.82,194.31l3.66-2.11-1.4-1.07a.59.59,0,0,1,0-.63c.1-.25.29-.37.41-.28l2,1.53h0a.18.18,0,0,1,.06.08s0,0,0,0a.47.47,0,0,1,0,.17.69.69,0,0,1,0,.2s0,0,0,0l-.06.15h0l-2,3.82a.47.47,0,0,1-.19.22.16.16,0,0,1-.22,0,.65.65,0,0,1,0-.65l1.4-2.68-3.66,2.11c-.16.09-.29,0-.29-.28A.79.79,0,0,1,109.82,194.31Z" style="fill:#455a64;opacity:0.5"></path><path d="M121.82,183.78c0-.22-.21-.2-.31,0l-.5,1.23c-.86-.09-1.89.74-2.59,2.22-.91,1.92-.91,4.19,0,5.06a1.29,1.29,0,0,0,1.64.1,4.56,4.56,0,0,0,1.65-2,.65.65,0,0,0,0-.64c-.12-.11-.3,0-.42.24-.68,1.43-1.78,2.07-2.45,1.42s-.68-2.35,0-3.78c.48-1,1.17-1.62,1.77-1.66l-.37.93c-.1.24,0,.46.14.36l1.49-1a.43.43,0,0,0,.17-.4Z" style="fill:#455a64;opacity:0.5"></path><path d="M161.14,153.31l1.34-2.82a.9.9,0,0,0,0-.88c-.16-.15-.42,0-.57.33l-1.34,2.82-1.33-1.28c-.16-.15-.41,0-.57.33a.85.85,0,0,0,0,.88L160,154l-1.33,2.82a.85.85,0,0,0,0,.88.21.21,0,0,0,.28,0,.75.75,0,0,0,.29-.35l1.33-2.82,1.34,1.28a.21.21,0,0,0,.28,0,.75.75,0,0,0,.29-.35.9.9,0,0,0,0-.88Z" style="fill:#455a64;opacity:0.5"></path><path d="M126.68,187.25v-4.72a5.14,5.14,0,0,1,2.33-4L324.38,65.74c1.29-.75,2.33-.14,2.33,1.34V71.8a5.14,5.14,0,0,1-2.33,4L129,188.59C127.72,189.34,126.68,188.73,126.68,187.25Z" style="fill:#fafafa"></path><path d="M321.21,76.2a.65.65,0,0,1-.21,0,.63.63,0,0,1-.35-.71l.23-1.91-.9-.65a.63.63,0,0,1-.24-.52,1,1,0,0,1,.38-.81l1.37-1.06a.32.32,0,0,0,.06-.11l.61-2a.85.85,0,0,1,.69-.65.52.52,0,0,1,.54.32h0l.51,1.09,1.16-.44a.52.52,0,0,1,.61.14.83.83,0,0,1,0,.94l-1,1.86a.45.45,0,0,0,0,.11l.24,1.68a1,1,0,0,1-.3.84.61.61,0,0,1-.54.21L323,74.36l-1.21,1.54A.69.69,0,0,1,321.21,76.2Zm-.66-3.9.9.65a.68.68,0,0,1,.24.64l-.16,1.28.81-1a.71.71,0,0,1,.62-.3l1.12.14a.38.38,0,0,0,0-.13l-.24-1.68a1.08,1.08,0,0,1,.12-.6l.87-1.63L324,70a.55.55,0,0,1-.71-.28l-.4-.86-.55,1.79a1,1,0,0,1-.34.51l-1.37,1A.29.29,0,0,0,320.55,72.3Zm.42,1.3Zm1.69-5.2Z" style="fill:#e0e0e0"></path><g style="opacity:0.5"><path d="M329.46,65.16a.8.8,0,0,1-.41-1.5l6.56-3.79a.81.81,0,1,1,.81,1.4l-6.56,3.78A.73.73,0,0,1,329.46,65.16Z" style="fill:#455a64"></path><path d="M329.46,69a.8.8,0,0,1-.7-.4.82.82,0,0,1,.29-1.11l6.56-3.78a.81.81,0,0,1,1.11.29.8.8,0,0,1-.3,1.1l-6.56,3.79A.73.73,0,0,1,329.46,69Z" style="fill:#455a64"></path><path d="M329.46,72.74a.81.81,0,0,1-.41-1.51l6.56-3.79a.82.82,0,0,1,1.11.3.8.8,0,0,1-.3,1.1l-6.56,3.79A.83.83,0,0,1,329.46,72.74Z" style="fill:#455a64"></path></g><g id="freepik--Search--inject-60"><g style="opacity:0.5"><path d="M103.27,214.38a.8.8,0,0,1-.41-1.5l6.56-3.79a.81.81,0,0,1,.81,1.4l-6.56,3.78A.76.76,0,0,1,103.27,214.38Z" style="fill:#455a64"></path><path d="M103.27,218.17a.8.8,0,0,1-.7-.4.81.81,0,0,1,.29-1.11l6.56-3.78a.8.8,0,0,1,1.1.29.81.81,0,0,1-.29,1.11l-6.56,3.78A.76.76,0,0,1,103.27,218.17Z" style="fill:#455a64"></path><path d="M103.27,222a.81.81,0,0,1-.41-1.51l6.56-3.78a.79.79,0,0,1,1.1.29.8.8,0,0,1-.29,1.1l-6.56,3.79A.86.86,0,0,1,103.27,222Z" style="fill:#455a64"></path></g><path d="M161.45,181v5.81c0,1.19.84,1.67,1.87,1.08l77.93-45.06V132.69l-77.92,45.06A4.14,4.14,0,0,0,161.45,181Z" style="fill:#e6e6e6"></path><path d="M251.07,127c1-.6,1.87-.11,1.87,1.08v5.81a4.15,4.15,0,0,1-1.87,3.24l-9.82,5.67V132.69Z" style="fill:#FEF2DC"></path><path d="M250.34,135l-1.09-.35a6.11,6.11,0,0,0,.17-1.41,2.57,2.57,0,0,0-1-2.34,1.55,1.55,0,0,0-1.59.08,5.6,5.6,0,0,0-2.19,4.56,2.57,2.57,0,0,0,1,2.34,1.39,1.39,0,0,0,.69.18,1.75,1.75,0,0,0,.9-.26,4.58,4.58,0,0,0,1.77-2.37l1.1.34a.25.25,0,0,0,.12,0,.4.4,0,0,0,.12-.79Zm-3.51,2.1a.77.77,0,0,1-.79.07,1.9,1.9,0,0,1-.59-1.63,4.92,4.92,0,0,1,1.78-3.86,1.05,1.05,0,0,1,.5-.15.51.51,0,0,1,.29.08,1.9,1.9,0,0,1,.59,1.63A4.92,4.92,0,0,1,246.83,137.09Z" style="fill:#fafafa"></path><path d="M129.06,197.53,117.81,204a4.1,4.1,0,0,0-1.87,3.22v5.79c0,1.19.84,1.67,1.87,1.08l11.25-6.51a4.11,4.11,0,0,0,1.86-3.23V198.6C130.92,197.42,130.09,196.93,129.06,197.53Z" style="fill:#FEF2DC"></path><path d="M324.71,84.56a9.7,9.7,0,0,0-4.38,7.59c0,2.8,2,3.93,4.38,2.54a9.71,9.71,0,0,0,4.39-7.6C329.1,84.29,327.13,83.16,324.71,84.56Z" style="fill:#FEF2DC"></path><path d="M324.2,89a.76.76,0,0,1-.39-.1,1,1,0,0,1-.42-.88,2.52,2.52,0,0,1,1.15-2h0a.87.87,0,0,1,1.4.81,2.54,2.54,0,0,1-1.16,2A1.23,1.23,0,0,1,324.2,89Z" style="fill:#fff"></path><path d="M326.44,89.31a1.5,1.5,0,0,0-1.54.12l-.64.37a4.32,4.32,0,0,0-2,3.41v.46a2.47,2.47,0,0,0,2.42-.26,7,7,0,0,0,2.42-2.54v-.11A1.59,1.59,0,0,0,326.44,89.31Z" style="fill:#fff"></path><path d="M309.2,98.12V96.57c0-1.76-1.07-2.57-2.39-1.81h0a5.74,5.74,0,0,0-2.4,4.58v1.39a5.52,5.52,0,0,1-.81,2.7h0a1.48,1.48,0,0,0-.2.7h0c0,.45.27.65.6.46l5.61-3.23a1.47,1.47,0,0,0,.6-1.16h0a.59.59,0,0,0-.18-.47h0A1.63,1.63,0,0,1,309.2,98.12Z" style="fill:#FEF2DC"></path><path d="M308,102.8a2.77,2.77,0,0,1-1.15,2.2c-.64.36-1.16,0-1.16-.87Z" style="fill:#FEF2DC"></path><path d="M288.52,105.48a2.57,2.57,0,0,1,1-.34,1.32,1.32,0,0,1,.8.16,1.34,1.34,0,0,1,.53.61A2.54,2.54,0,0,1,291,107a4.21,4.21,0,0,1-.11,1,6.17,6.17,0,0,1-.28.86,7.85,7.85,0,0,1-.37.77l-.4.72c-.12.23-.24.47-.34.7a3.19,3.19,0,0,0-.21.69,1.14,1.14,0,0,1-.08.33.47.47,0,0,1-.16.2l-1.13.65c-.07,0-.13,0-.17,0a.3.3,0,0,1-.08-.23,3.13,3.13,0,0,1,.13-.91,6.61,6.61,0,0,1,.3-.85c.13-.27.26-.54.41-.79s.27-.5.4-.72.22-.45.31-.66a1.68,1.68,0,0,0,.12-.59c0-.28-.07-.46-.2-.53s-.35,0-.63.12a1.57,1.57,0,0,0-.59.54,2.9,2.9,0,0,0-.27.57l-.14.5a.54.54,0,0,1-.23.33l-1.13.65a.12.12,0,0,1-.14,0,.27.27,0,0,1-.06-.2,4.91,4.91,0,0,1,.18-1.15,7.62,7.62,0,0,1,.5-1.29,6.26,6.26,0,0,1,.8-1.22A4.14,4.14,0,0,1,288.52,105.48Zm.8,9.24a.73.73,0,0,1-.07.31.48.48,0,0,1-.18.21l-1.16.67a.12.12,0,0,1-.17,0,.3.3,0,0,1-.08-.23v-1.43a.71.71,0,0,1,.08-.31.44.44,0,0,1,.17-.22l1.16-.67a.14.14,0,0,1,.18,0,.28.28,0,0,1,.07.22Z" style="fill:#FEF2DC"></path></g><path d="M110.83,226.43l44.41-25.65c1.2-.69,2.17-.13,2.17,1.25v137a4.78,4.78,0,0,1-2.17,3.75l-44.41,25.64c-1.19.69-2.16.13-2.16-1.25v-137A4.8,4.8,0,0,1,110.83,226.43Z" style="fill:#f0f0f0"></path><path d="M119,231.12l28.16-16.27c1.2-.69,2.17-.2,2.17,1.1a4.64,4.64,0,0,1-2.17,3.6L119,235.81c-1.19.69-2.16.2-2.16-1.1A4.64,4.64,0,0,1,119,231.12Z" style="fill:#fafafa"></path><path d="M116.79,243.25v1.69c0,.83.58,1.16,1.3.75l1.46-.85a2.86,2.86,0,0,0,1.3-2.25V240.9c0-.83-.58-1.16-1.3-.75l-1.46.85A2.86,2.86,0,0,0,116.79,243.25Z" style="fill:#FEF2DC"></path><path d="M124.91,239.4c0,1.3,1,1.79,2.17,1.1l20-11.57a4.64,4.64,0,0,0,2.17-3.6c0-1.29-1-1.78-2.17-1.09l-20,11.57A4.64,4.64,0,0,0,124.91,239.4Z" style="fill:#fafafa"></path><path d="M116.79,252.64v1.69c0,.83.58,1.16,1.3.75l1.46-.85a2.86,2.86,0,0,0,1.3-2.25v-1.69c0-.83-.58-1.16-1.3-.75l-1.46.85A2.86,2.86,0,0,0,116.79,252.64Z" style="fill:#FEF2DC"></path><path d="M124.91,248.79c0,1.3,1,1.79,2.17,1.1l20-11.57a4.64,4.64,0,0,0,2.17-3.6c0-1.29-1-1.78-2.17-1.09l-20,11.57A4.64,4.64,0,0,0,124.91,248.79Z" style="fill:#fafafa"></path><path d="M116.79,262v1.69c0,.83.58,1.17,1.3.75l1.46-.84a2.87,2.87,0,0,0,1.3-2.25v-1.69c0-.83-.58-1.17-1.3-.75l-1.46.84A2.87,2.87,0,0,0,116.79,262Z" style="fill:#FEF2DC"></path><path d="M124.91,258.17c0,1.29,1,1.78,2.17,1.09l20-11.57a4.64,4.64,0,0,0,2.17-3.59c0-1.3-1-1.79-2.17-1.1l-20,11.57A4.64,4.64,0,0,0,124.91,258.17Z" style="fill:#fafafa"></path><path d="M116.79,271.38v1.69c0,.83.58,1.17,1.3.75l1.46-.84a2.87,2.87,0,0,0,1.3-2.25V269c0-.83-.58-1.17-1.3-.75l-1.46.84A2.87,2.87,0,0,0,116.79,271.38Z" style="fill:#FEF2DC"></path><path d="M124.91,267.54c0,1.29,1,1.78,2.17,1.09l20-11.57a4.64,4.64,0,0,0,2.17-3.59c0-1.3-1-1.79-2.17-1.1l-20,11.57A4.64,4.64,0,0,0,124.91,267.54Z" style="fill:#fafafa"></path><path d="M118.78,282.81,147,266.54c1.2-.69,2.16-.2,2.16,1.1a4.62,4.62,0,0,1-2.16,3.59L118.78,287.5c-1.19.69-2.16.2-2.16-1.1A4.65,4.65,0,0,1,118.78,282.81Z" style="fill:#fafafa"></path><path d="M116.62,294.94v1.69c0,.83.58,1.16,1.3.75l1.46-.85a2.86,2.86,0,0,0,1.3-2.25v-1.69c0-.83-.58-1.16-1.3-.75l-1.46.85A2.86,2.86,0,0,0,116.62,294.94Z" style="fill:#FEF2DC"></path><path d="M124.74,291.09c0,1.3,1,1.79,2.17,1.1l20-11.57a4.67,4.67,0,0,0,2.16-3.6c0-1.3-1-1.79-2.16-1.1l-20,11.58A4.64,4.64,0,0,0,124.74,291.09Z" style="fill:#fafafa"></path><path d="M116.62,304.33V306c0,.83.58,1.16,1.3.75l1.46-.85a2.86,2.86,0,0,0,1.3-2.25V302c0-.83-.58-1.16-1.3-.75l-1.46.85A2.86,2.86,0,0,0,116.62,304.33Z" style="fill:#FEF2DC"></path><path d="M124.74,300.48c0,1.3,1,1.79,2.17,1.1L147,290a4.65,4.65,0,0,0,2.16-3.6c0-1.29-1-1.79-2.16-1.09l-20,11.57A4.64,4.64,0,0,0,124.74,300.48Z" style="fill:#fafafa"></path><path d="M116.62,313.7v1.69c0,.83.58,1.17,1.3.75l1.46-.84a2.87,2.87,0,0,0,1.3-2.25v-1.69c0-.83-.58-1.17-1.3-.75l-1.46.84A2.87,2.87,0,0,0,116.62,313.7Z" style="fill:#FEF2DC"></path><path d="M124.74,309.86c0,1.29,1,1.78,2.17,1.09l20-11.57a4.65,4.65,0,0,0,2.16-3.6c0-1.29-1-1.78-2.16-1.09l-20,11.57A4.64,4.64,0,0,0,124.74,309.86Z" style="fill:#fafafa"></path><path d="M116.62,323.07v1.69c0,.83.58,1.17,1.3.75l1.46-.84a2.87,2.87,0,0,0,1.3-2.25v-1.69c0-.83-.58-1.17-1.3-.75l-1.46.84A2.87,2.87,0,0,0,116.62,323.07Z" style="fill:#FEF2DC"></path><path d="M124.74,319.23c0,1.29,1,1.78,2.17,1.09l20-11.57a4.65,4.65,0,0,0,2.16-3.59c0-1.3-1-1.79-2.16-1.1l-20,11.57A4.64,4.64,0,0,0,124.74,319.23Z" style="fill:#fafafa"></path><path d="M183.74,190.06l19.74-11.4c1-.56,1.77-.16,1.77.9a3.78,3.78,0,0,1-1.77,2.94l-19.75,11.4c-1,.57-1.77.17-1.77-.89A3.83,3.83,0,0,1,183.74,190.06Z" style="fill:#455a64"></path><path d="M183.26,196.76,201,186.53c.72-.41,1.3-.3,1.3.26a2.55,2.55,0,0,1-1.29,1.78l-17.73,10.52c-.71.42-1.29.24-1.29-.41A2.58,2.58,0,0,1,183.26,196.76Z" style="fill:#455a64"></path><path d="M175.14,194.82c2.27-1.25,4,0,3.85,2.66a9.59,9.59,0,0,1-4.36,7.18c-2.26,1.24-4,.05-3.85-2.67A9.57,9.57,0,0,1,175.14,194.82Z" style="fill:#FEF2DC"></path><path d="M174.84,196.69c.58-.34,1.06-.07,1.06.61a2.36,2.36,0,0,1-1.06,1.83c-.58.34-1.06.06-1.06-.61A2.34,2.34,0,0,1,174.84,196.69Z" style="fill:#fff"></path><path d="M176.92,200.55c0-1.11-.78-1.6-1.73-1.05l-.6.35a3.83,3.83,0,0,0-1.74,3v.3s.41.84,2-.12a4.55,4.55,0,0,0,2-2.23Z" style="fill:#fff"></path><path d="M172.48,211.88c0,1,.78,1.4,1.73.85L272.3,156.1a3.69,3.69,0,0,0,1.73-2.85c0-1-.77-1.4-1.73-.84L174.22,209A3.67,3.67,0,0,0,172.48,211.88Z" style="fill:#e0e0e0"></path><path d="M172.48,218.92c0,1,.78,1.39,1.73.84L233,185.84a3.68,3.68,0,0,0,1.73-2.85c0-1-.77-1.39-1.73-.84l-58.74,33.92A3.69,3.69,0,0,0,172.48,218.92Z" style="fill:#e0e0e0"></path><polygon points="172.48 226.46 274.03 167.83 274.03 228.81 172.48 287.44 172.48 226.46" style="fill:#FEF2DC"></polygon><polygon points="172.48 226.46 274.03 167.83 274.03 228.81 172.48 287.44 172.48 226.46" style="fill:#fff;opacity:0.7000000000000001"></polygon><polygon points="172.48 287.44 172.48 268.68 209.04 219.43 241.45 233.55 230.79 226.46 245.6 207.7 274.03 218.39 274.03 228.81 172.48 287.44" style="fill:#FEF2DC"></polygon><path d="M259.46,188c3.17-1.83,5.74-.35,5.74,3.31a12.68,12.68,0,0,1-5.74,9.94c-3.17,1.83-5.74.35-5.74-3.31A12.68,12.68,0,0,1,259.46,188Z" style="fill:#FEF2DC"></path><path d="M183.74,291l19.74-11.4c1-.57,1.77-.17,1.77.89a3.8,3.8,0,0,1-1.77,2.95l-19.75,11.4c-1,.56-1.77.16-1.77-.9A3.79,3.79,0,0,1,183.74,291Z" style="fill:#455a64"></path><path d="M183.26,297.69,201,287.47c.72-.42,1.3-.3,1.3.26A2.54,2.54,0,0,1,201,289.5L183.25,300c-.71.43-1.29.24-1.29-.41A2.61,2.61,0,0,1,183.26,297.69Z" style="fill:#455a64"></path><path d="M175.14,295.75c2.27-1.24,4-.05,3.85,2.67a9.57,9.57,0,0,1-4.36,7.17c-2.26,1.25-4,.05-3.85-2.66A9.59,9.59,0,0,1,175.14,295.75Z" style="fill:#FEF2DC"></path><path d="M174.84,297.62c.58-.33,1.06-.06,1.06.61a2.33,2.33,0,0,1-1.06,1.83c-.58.34-1.06.07-1.06-.61A2.36,2.36,0,0,1,174.84,297.62Z" style="fill:#fff"></path><path d="M176.92,301.48c0-1.11-.78-1.6-1.73-1l-.6.34a3.85,3.85,0,0,0-1.74,3v.3s.41.84,2-.12a4.55,4.55,0,0,0,2-2.23Z" style="fill:#fff"></path><path d="M172.48,312.82c0,1,.78,1.39,1.73.84L272.3,257a3.66,3.66,0,0,0,1.73-2.84c0-1-.77-1.4-1.73-.85L174.22,310A3.69,3.69,0,0,0,172.48,312.82Z" style="fill:#e0e0e0"></path><path d="M172.48,319.85c0,1,.78,1.4,1.73.85L233,286.77a3.66,3.66,0,0,0,1.73-2.84c0-1-.77-1.4-1.73-.85L174.22,317A3.67,3.67,0,0,0,172.48,319.85Z" style="fill:#e0e0e0"></path><path d="M299.41,116.93c3-1.67,5.37-.07,5.18,3.57a12.85,12.85,0,0,1-5.86,9.63c-3,1.67-5.36.07-5.17-3.57A12.87,12.87,0,0,1,299.41,116.93Z" style="fill:#455a64"></path><path d="M299,118.53c.94-.55,1.71-.1,1.71,1a3.78,3.78,0,0,1-1.71,3c-.94.54-1.71.1-1.71-1A3.78,3.78,0,0,1,299,118.53Z" style="fill:#fff"></path><path d="M302.36,124.76c0-1.79-1.25-2.58-2.8-1.69l-1,.56a6.19,6.19,0,0,0-2.8,4.86V129s.66,1.36,3.28-.2a7.32,7.32,0,0,0,3.29-3.6Z" style="fill:#fff"></path><path d="M303.26,124.36c.91-.5,1.6,0,1.54,1.06a3.82,3.82,0,0,1-1.74,2.86c-.91.5-1.6,0-1.54-1.06A3.84,3.84,0,0,1,303.26,124.36Z" style="fill:#FEF2DC"></path><path d="M309.45,118.14,328.68,107c.6-.35,1.08-.1,1.08.55a2.3,2.3,0,0,1-1.08,1.79l-19.23,11.11c-.59.34-1.08.1-1.08-.55A2.35,2.35,0,0,1,309.45,118.14Z" style="fill:#e0e0e0"></path><path d="M299.41,135.69c3-1.67,5.37-.07,5.18,3.58a12.85,12.85,0,0,1-5.86,9.62c-3,1.68-5.36.07-5.17-3.57A12.87,12.87,0,0,1,299.41,135.69Z" style="fill:#455a64"></path><path d="M299,137.29c.94-.54,1.71-.1,1.71,1a3.78,3.78,0,0,1-1.71,2.95c-.94.54-1.71.1-1.71-1A3.78,3.78,0,0,1,299,137.29Z" style="fill:#fff"></path><path d="M302.36,143.52c0-1.79-1.25-2.58-2.8-1.69l-1,.56a6.2,6.2,0,0,0-2.8,4.86v.48s.66,1.36,3.28-.19a7.36,7.36,0,0,0,3.29-3.6Z" style="fill:#fff"></path><path d="M303.26,143.12c.91-.5,1.6,0,1.54,1.06a3.86,3.86,0,0,1-1.74,2.87c-.91.49-1.6,0-1.54-1.07A3.86,3.86,0,0,1,303.26,143.12Z" style="fill:#FEF2DC"></path><path d="M309.45,136.9l19.23-11.1c.6-.34,1.08-.1,1.08.55a2.32,2.32,0,0,1-1.08,1.8l-19.23,11.1c-.59.34-1.08.1-1.08-.55A2.35,2.35,0,0,1,309.45,136.9Z" style="fill:#e0e0e0"></path><path d="M299.41,154.45c3-1.67,5.37-.07,5.18,3.58a12.88,12.88,0,0,1-5.86,9.63c-3,1.67-5.36.07-5.17-3.58A12.87,12.87,0,0,1,299.41,154.45Z" style="fill:#455a64"></path><path d="M299,156.05c.94-.54,1.71-.1,1.71,1a3.76,3.76,0,0,1-1.71,3c-.94.55-1.71.11-1.71-1A3.8,3.8,0,0,1,299,156.05Z" style="fill:#fff"></path><path d="M302.36,162.28c0-1.79-1.25-2.58-2.8-1.69l-1,.56a6.2,6.2,0,0,0-2.8,4.86v.48s.66,1.36,3.28-.19a7.36,7.36,0,0,0,3.29-3.6Z" style="fill:#fff"></path><path d="M303.26,161.88c.91-.5,1.6,0,1.54,1.06a3.86,3.86,0,0,1-1.74,2.87c-.91.5-1.6,0-1.54-1.07A3.86,3.86,0,0,1,303.26,161.88Z" style="fill:#FEF2DC"></path><path d="M309.45,155.66l19.23-11.1c.6-.34,1.08-.1,1.08.55a2.32,2.32,0,0,1-1.08,1.8L309.45,158c-.59.34-1.08.1-1.08-.55A2.35,2.35,0,0,1,309.45,155.66Z" style="fill:#e0e0e0"></path><path d="M299.41,173.21c3-1.67,5.37-.07,5.18,3.58a12.85,12.85,0,0,1-5.86,9.63c-3,1.67-5.36.07-5.17-3.58A12.88,12.88,0,0,1,299.41,173.21Z" style="fill:#455a64"></path><path d="M299,174.81c.94-.54,1.71-.1,1.71,1a3.76,3.76,0,0,1-1.71,2.95c-.94.55-1.71.11-1.71-1A3.8,3.8,0,0,1,299,174.81Z" style="fill:#fff"></path><path d="M302.36,181c0-1.78-1.25-2.58-2.8-1.68l-1,.56a6.17,6.17,0,0,0-2.8,4.85v.48s.66,1.36,3.28-.19a7.32,7.32,0,0,0,3.29-3.6Z" style="fill:#fff"></path><path d="M303.26,180.64c.91-.49,1.6,0,1.54,1.07a3.86,3.86,0,0,1-1.74,2.86c-.91.5-1.6,0-1.54-1.06A3.86,3.86,0,0,1,303.26,180.64Z" style="fill:#FEF2DC"></path><path d="M309.45,174.43l19.23-11.11c.6-.34,1.08-.1,1.08.55a2.32,2.32,0,0,1-1.08,1.8l-19.23,11.1c-.59.35-1.08.1-1.08-.55A2.33,2.33,0,0,1,309.45,174.43Z" style="fill:#e0e0e0"></path><path d="M299.41,192c3-1.67,5.37-.07,5.18,3.58a12.85,12.85,0,0,1-5.86,9.63c-3,1.67-5.36.07-5.17-3.58A12.9,12.9,0,0,1,299.41,192Z" style="fill:#455a64"></path><path d="M299,193.58c.94-.55,1.71-.11,1.71,1a3.8,3.8,0,0,1-1.71,3c-.94.54-1.71.1-1.71-1A3.76,3.76,0,0,1,299,193.58Z" style="fill:#fff"></path><path d="M302.36,199.81c0-1.79-1.25-2.59-2.8-1.69l-1,.56a6.17,6.17,0,0,0-2.8,4.85V204s.66,1.36,3.28-.19a7.32,7.32,0,0,0,3.29-3.6Z" style="fill:#fff"></path><path d="M303.26,199.4c.91-.49,1.6,0,1.54,1.07a3.86,3.86,0,0,1-1.74,2.86c-.91.5-1.6,0-1.54-1.06A3.86,3.86,0,0,1,303.26,199.4Z" style="fill:#FEF2DC"></path><path d="M309.45,193.19l19.23-11.1c.6-.35,1.08-.1,1.08.54a2.31,2.31,0,0,1-1.08,1.8l-19.23,11.1c-.59.35-1.08.1-1.08-.55A2.33,2.33,0,0,1,309.45,193.19Z" style="fill:#e0e0e0"></path><path d="M299.41,210.74c3-1.67,5.37-.07,5.18,3.57a12.85,12.85,0,0,1-5.86,9.63c-3,1.67-5.36.07-5.17-3.57A12.87,12.87,0,0,1,299.41,210.74Z" style="fill:#455a64"></path><path d="M299,212.34c.94-.55,1.71-.11,1.71,1a3.8,3.8,0,0,1-1.71,3c-.94.54-1.71.1-1.71-1A3.76,3.76,0,0,1,299,212.34Z" style="fill:#fff"></path><path d="M302.36,218.57c0-1.79-1.25-2.58-2.8-1.69l-1,.56a6.18,6.18,0,0,0-2.8,4.85v.49s.66,1.35,3.28-.2a7.32,7.32,0,0,0,3.29-3.6Z" style="fill:#fff"></path><path d="M303.26,218.17c.91-.5,1.6,0,1.54,1.06a3.84,3.84,0,0,1-1.74,2.86c-.91.5-1.6,0-1.54-1.06A3.84,3.84,0,0,1,303.26,218.17Z" style="fill:#FEF2DC"></path><path d="M309.45,212l19.23-11.1c.6-.35,1.08-.1,1.08.55a2.3,2.3,0,0,1-1.08,1.79l-19.23,11.1c-.59.35-1.08.1-1.08-.54A2.33,2.33,0,0,1,309.45,212Z" style="fill:#e0e0e0"></path></g></g><g id="freepik--dark-window--inject-60"><g id="freepik--dark-window--inject-60"><path d="M138.48,411.86V273.52h0v-36a6.24,6.24,0,0,1,.92-3.06l-3.93-2.26a6.35,6.35,0,0,0-.93,3.08v10h0V409.64a2.07,2.07,0,0,0,1.18,1.89l.11.06,3.67,2.07A2.06,2.06,0,0,1,138.48,411.86Z" style="fill:#37474f;opacity:0.9"></path><path d="M385.26,94.7a1.47,1.47,0,0,0-.05-.29.07.07,0,0,0,0-.06,1.07,1.07,0,0,0-.07-.27,1.38,1.38,0,0,0-.18-.39.59.59,0,0,0-.1-.17.48.48,0,0,0-.09-.11,1,1,0,0,0-.21-.2l0,0a1.35,1.35,0,0,0-.26-.15,2.25,2.25,0,0,0-2.07.26L141.56,232.17a6.83,6.83,0,0,0-3.09,5.34V411.86a2.1,2.1,0,0,0,3.08,1.85h0l5-2.91h0l235.6-136a6.81,6.81,0,0,0,3.08-5.34V95.08C385.28,95,385.27,94.82,385.26,94.7Z" style="fill:#455a64;opacity:0.8"></path><g style="opacity:0.5"><path d="M382.19,93.3,141.56,232.17a6.31,6.31,0,0,0-2.17,2.29l-3.92-2.27a6.14,6.14,0,0,1,2.15-2.25L378.26,91.07a2.17,2.17,0,0,1,2.24-.18c.55.34,3.11,1.79,3.76,2.14A2.26,2.26,0,0,0,382.19,93.3Z" style="fill:#37474f"></path></g><path d="M380.26,102.31l1.33-2.82a.85.85,0,0,0,0-.88c-.16-.15-.41,0-.57.33l-1.33,2.82-1.34-1.28c-.15-.15-.41,0-.57.33a.9.9,0,0,0,0,.88l1.34,1.28-1.34,2.83a.9.9,0,0,0,0,.88.24.24,0,0,0,.29,0,.82.82,0,0,0,.28-.34l1.34-2.83,1.33,1.29a.24.24,0,0,0,.29,0,.82.82,0,0,0,.28-.34.85.85,0,0,0,0-.88Z" style="fill:#fafafa"></path></g><g id="freepik--Comments--inject-60"><polygon points="371.85 111.97 319.05 142.45 319.05 297.24 371.85 266.75 371.85 111.97" style="fill:#f5f5f5"></polygon><path d="M333,140.91l14.15-8.18c.71-.4,1.27-.12,1.27.65a2.71,2.71,0,0,1-1.27,2.11L333,143.66c-.71.41-1.28.12-1.28-.64A2.71,2.71,0,0,1,333,140.91Z" style="fill:#455a64"></path><path d="M332.68,145.71l12.7-7.34c.51-.29.93-.21.93.19a1.86,1.86,0,0,1-.93,1.28l-12.71,7.54c-.51.3-.93.17-.93-.29A1.84,1.84,0,0,1,332.68,145.71Z" style="fill:#455a64"></path><path d="M326.85,144.32c1.63-.9,2.87,0,2.77,1.91a6.87,6.87,0,0,1-3.13,5.14c-1.63.89-2.86,0-2.76-1.91A6.86,6.86,0,0,1,326.85,144.32Z" style="fill:#FEF2DC"></path><path d="M326.64,145.66c.42-.24.75,0,.75.43a1.66,1.66,0,0,1-.75,1.32c-.42.24-.76,0-.76-.44A1.67,1.67,0,0,1,326.64,145.66Z" style="fill:#fff"></path><path d="M328.13,148.42c0-.79-.56-1.14-1.24-.75l-.43.25a2.75,2.75,0,0,0-1.25,2.16v.21s.3.61,1.46-.08a3.24,3.24,0,0,0,1.46-1.6Z" style="fill:#fff"></path><path d="M325,156.55c0,.73.55,1,1.24.61l35.08-20.32a2.66,2.66,0,0,0,1.24-2c0-.73-.56-1-1.24-.61l-35.08,20.32A2.64,2.64,0,0,0,325,156.55Z" style="opacity:0.30000000000000004"></path><path d="M325,161.6c0,.73.55,1,1.24.6l29.6-17.11a2.65,2.65,0,0,0,1.24-2c0-.73-.56-1-1.24-.6l-29.6,17.11A2.62,2.62,0,0,0,325,161.6Z" style="opacity:0.30000000000000004"></path><path d="M328.11,169.93a.75.75,0,0,1-.28.49.64.64,0,0,1,0,.24.71.71,0,0,1-.36.56l-1.62.94V170h0s.45-1,.49-1.16a4.8,4.8,0,0,0,0-.76.39.39,0,0,1,.43-.2h0a.24.24,0,0,1,.1.1,1,1,0,0,1,.09.34,1.55,1.55,0,0,1,0,.6l1-.56a.2.2,0,0,1,.19,0,.24.24,0,0,1,.1.21.66.66,0,0,1-.15.42s.19,0,.19.21a.68.68,0,0,1-.24.48S328.11,169.75,328.11,169.93Z" style="fill:#e0e0e0"></path><path d="M325.66,172v.45a.18.18,0,0,1-.1.16l-.52.31h0l-.09,0v-2.44l.43-.24h0l.25-.15a.32.32,0,0,1,0,.09Z" style="fill:#e0e0e0"></path><path d="M331.13,166.41l2.82-1.63c.53-.3.95-.09.95.47a2,2,0,0,1-.95,1.57l-2.82,1.63c-.53.3-.95.09-.95-.48A2,2,0,0,1,331.13,166.41Z" style="fill:#ebebeb"></path><path d="M345.82,157.93l2.82-1.62c.52-.31.95-.09.95.47a2,2,0,0,1-.95,1.57L345.82,160c-.53.31-.95.09-.95-.47A2,2,0,0,1,345.82,157.93Z" style="fill:#ebebeb"></path><path d="M360,149.76l2.83-1.62c.52-.3,1-.09,1,.47a2,2,0,0,1-1,1.57L360,151.81c-.52.3-.94.09-.94-.48A2,2,0,0,1,360,149.76Z" style="fill:#ebebeb"></path><path d="M343.31,159.13c0-.37-.25-.51-.57-.33l-3.43,2a1.24,1.24,0,0,0-.57,1v2.36c0,.36.25.51.57.33l.95-.55,0,.82a.06.06,0,0,0,.1,0l1.4-1.7,1-.57a1.24,1.24,0,0,0,.57-1Z" style="fill:#e0e0e0"></path><path d="M358.1,151.8l-2.26-.7v1.2a5.28,5.28,0,0,0-2.24,1.8c-1.25,1.87-.35,2.93.07,3,0,0-.66-.45.07-1.79a4.06,4.06,0,0,1,2.1-1.57v1.38Z" style="fill:#e0e0e0"></path><g id="freepik--comments--inject-60"><path d="M327.53,177.62c1.63-.9,2.87,0,2.77,1.91a6.89,6.89,0,0,1-3.13,5.14c-1.63.89-2.86,0-2.76-1.91A6.86,6.86,0,0,1,327.53,177.62Z" style="fill:#FEF2DC"></path><path d="M327.32,179c.42-.25.75-.05.75.43a1.65,1.65,0,0,1-.75,1.31c-.42.25-.76.05-.76-.43A1.66,1.66,0,0,1,327.32,179Z" style="fill:#fff"></path><path d="M328.81,181.72c0-.79-.56-1.14-1.24-.75l-.43.25a2.75,2.75,0,0,0-1.25,2.16v.21s.29.6,1.46-.09a3.24,3.24,0,0,0,1.46-1.59Z" style="fill:#fff"></path><path d="M333.2,176.15v7.73c0,1.1.77,1.55,1.73,1L362,169.25a3.83,3.83,0,0,0,1.73-3v-7.73c0-1.11-.78-1.55-1.73-1l-27.07,15.63A3.81,3.81,0,0,0,333.2,176.15Z" style="fill:#fff"></path><path d="M336,175.34,350.48,167c.58-.34,1.06-.25,1.06.21a2.08,2.08,0,0,1-1.06,1.46L336,177.24c-.59.35-1.06.2-1.06-.33A2.12,2.12,0,0,1,336,175.34Z" style="fill:#455a64"></path><path d="M335.83,179.53l23.1-13.45c.52-.29.93-.21.93.19a1.84,1.84,0,0,1-.92,1.28L335.82,181.2c-.51.3-.92.17-.92-.29A1.86,1.86,0,0,1,335.83,179.53Z" style="fill:#e0e0e0"></path><path d="M327.53,194.09c1.63-.89,2.87,0,2.77,1.91a6.91,6.91,0,0,1-3.13,5.15c-1.63.89-2.86,0-2.76-1.91A6.9,6.9,0,0,1,327.53,194.09Z" style="fill:#FEF2DC"></path><path d="M327.32,195.43c.42-.24.75,0,.75.44a1.66,1.66,0,0,1-.75,1.31c-.42.24-.76,0-.76-.44A1.67,1.67,0,0,1,327.32,195.43Z" style="fill:#fff"></path><path d="M328.81,198.2c0-.8-.56-1.15-1.24-.75l-.43.25a2.73,2.73,0,0,0-1.25,2.15v.22s.29.6,1.46-.09a3.24,3.24,0,0,0,1.46-1.6Z" style="fill:#fff"></path><path d="M333.2,192.62v7.74c0,1.1.77,1.55,1.73,1L362,185.73a3.85,3.85,0,0,0,1.73-3V175c0-1.1-.78-1.55-1.73-1l-27.07,15.63A3.84,3.84,0,0,0,333.2,192.62Z" style="fill:#fff"></path><path d="M336,191.81l14.52-8.38c.58-.34,1.06-.24,1.06.22a2.07,2.07,0,0,1-1.06,1.45L336,193.72c-.59.35-1.06.2-1.06-.33A2.16,2.16,0,0,1,336,191.81Z" style="fill:#455a64"></path><path d="M337,197.75l-.07,0-.41-.22-.12-.06a1.07,1.07,0,0,1-.75-1.19,1.28,1.28,0,0,1,.57-1.13.51.51,0,0,1,.73.38,1.82,1.82,0,0,1,.46-1.08.59.59,0,0,1,.62-.11.62.62,0,0,1,.33.55,3.2,3.2,0,0,1-.68,1.88l-.14.23-.41.69A.13.13,0,0,1,337,197.75Z" style="fill:#FEF2DC"></path><path d="M341,195.47h-.07l-.41-.22-.12-.06a1.07,1.07,0,0,1-.76-1.19,1.33,1.33,0,0,1,.57-1.13.51.51,0,0,1,.74.38,1.82,1.82,0,0,1,.45-1.08.59.59,0,0,1,.62-.11.61.61,0,0,1,.33.55,3.16,3.16,0,0,1-.68,1.88l-.13.23-.41.69A.15.15,0,0,1,341,195.47Z" style="fill:#FEF2DC"></path><path d="M344.88,193.2h-.07l-.41-.22a.67.67,0,0,0-.12-.06,1.07,1.07,0,0,1-.76-1.19,1.33,1.33,0,0,1,.57-1.13.5.5,0,0,1,.74.38,1.82,1.82,0,0,1,.46-1.08.61.61,0,0,1,.62-.12.68.68,0,0,1,.33.56,3.32,3.32,0,0,1-.68,1.88l-.14.23-.41.69A.15.15,0,0,1,344.88,193.2Z" style="fill:#FEF2DC"></path></g></g></g><g id="freepik--Photos--inject-60"><g id="freepik--photos--inject-60"><polygon points="468.82 376.8 412 326.18 333.77 355.45 333.78 360.14 390.59 410.76 468.82 381.49 468.82 376.8" style="fill:#ebebeb"></polygon><polygon points="468.82 376.8 390.59 406.07 333.77 355.45 412 326.18 468.82 376.8" style="fill:#fff"></polygon><polygon points="457.06 375.31 393.12 399.23 345.61 356.91 409.55 332.98 457.06 375.31" style="fill:#FEF2DC"></polygon><polygon points="457.06 375.31 393.12 399.23 345.61 356.91 409.55 332.98 457.06 375.31" style="fill:#fff;opacity:0.7000000000000001"></polygon><polygon points="394.17 396.38 452.12 374.7 440.38 364.25 418.93 358.42 418.24 370.34 429.24 374.69 381.91 361.2 386.01 389.11 394.17 396.38" style="fill:#FEF2DC"></polygon><path d="M409.27,347.46c2,1.82,1.14,4.24-2,5.41s-7.34.66-9.37-1.15-1.14-4.24,2-5.41S407.23,345.65,409.27,347.46Z" style="fill:#FEF2DC"></path><polygon points="333.77 355.45 389.82 405.37 412.58 392.23 342.94 352.02 333.77 355.45" style="opacity:0.2"></polygon><polygon points="390.59 410.76 390.59 406.07 333.77 355.45 333.78 360.14 390.59 410.76" style="fill:#f5f5f5"></polygon><polygon points="389.82 410.06 389.82 405.37 333.77 355.45 333.78 360.14 389.82 410.06" style="opacity:0.2"></polygon><polygon points="410.74 385.88 336.87 343.24 270.95 381.29 270.95 385.99 344.82 428.64 410.74 390.58 410.74 385.88" style="fill:#ebebeb"></polygon><polygon points="344.82 423.94 344.82 428.64 270.95 385.99 270.95 381.29 344.82 423.94" style="fill:#f5f5f5"></polygon><polygon points="410.74 385.89 344.82 423.94 270.95 381.29 336.87 343.24 410.74 385.89" style="fill:#fff"></polygon><polygon points="398.7 385.85 344.82 416.95 283.05 381.29 336.93 350.19 398.7 385.85" style="fill:#FEF2DC"></polygon><polygon points="398.7 385.85 344.82 416.95 283.05 381.29 336.93 350.19 398.7 385.85" style="fill:#fff;opacity:0.7000000000000001"></polygon><polygon points="344.82 414.04 393.64 385.85 378.39 377.04 355.3 373.93 358.94 385.67 371.27 388.6 320.1 381.11 334.21 407.91 344.82 414.04" style="fill:#FEF2DC"></polygon><path d="M341.89,364.38c2.65,1.53,2.65,4,0,5.53a10.57,10.57,0,0,1-9.58,0c-2.65-1.52-2.65-4,0-5.53A10.57,10.57,0,0,1,341.89,364.38Z" style="fill:#FEF2DC"></path><polygon points="383.86 415.72 297.28 381.96 245.11 426.57 245.11 431.3 331.69 465.06 383.86 420.45 383.86 415.72" style="fill:#ebebeb"></polygon><polygon points="331.69 460.32 331.69 465.06 245.11 431.3 245.11 426.57 331.69 460.32" style="fill:#f5f5f5"></polygon><polygon points="383.86 415.72 331.69 460.32 245.11 426.57 297.28 381.96 383.86 415.72" style="fill:#fff"></polygon><polygon points="372.02 417.01 329.39 453.46 256.99 425.24 299.62 388.78 372.02 417.01" style="fill:#FEF2DC"></polygon><polygon points="372.02 417.01 329.39 453.46 256.99 425.24 299.62 388.78 372.02 417.01" style="fill:#fff;opacity:0.7000000000000001"></polygon><polygon points="328.43 450.6 367.06 417.56 349.18 410.59 325.49 410.07 332.94 421.2 346 422.72 293.31 420.99 315.99 445.75 328.43 450.6" style="fill:#FEF2DC"></polygon><path d="M309.18,402.17c3.1,1.21,3.91,3.64,1.82,5.43s-6.3,2.27-9.4,1.06-3.92-3.64-1.83-5.43S306.08,401,309.18,402.17Z" style="fill:#FEF2DC"></path></g></g><g id="freepik--Plant--inject-60"><g id="freepik--Pot--inject-60"><g id="freepik--pot--inject-60"><path d="M386,309.55c-8.41-8.68-13.36-44-5.15-50.91H422.6c8.2,6.88,3.26,42.21-5.15,50.9l-.23.24-.29.29a10.16,10.16,0,0,1-.76.68,1.56,1.56,0,0,1-.2.16c-.2.16-.41.33-.63.49s-.72.49-1.09.7c-6.92,4-18.15,4-25.07,0h0c-.37-.21-.73-.45-1.1-.71-.21-.15-.39-.3-.59-.45l-.25-.2c-.26-.22-.5-.43-.73-.66l-.33-.33Z" style="fill:#455a64"></path><path d="M419,255.87c9.53,5.56,9.53,14.58,0,20.14s-25,5.57-34.51,0-9.53-14.58,0-20.14S409.44,250.3,419,255.87Z" style="fill:#455a64"></path><g style="opacity:0.1"><path d="M419,255.87c9.53,5.56,9.53,14.58,0,20.14s-25,5.57-34.51,0-9.53-14.58,0-20.14S409.44,250.3,419,255.87Z" style="fill:#fff"></path></g><path d="M414.39,258.54c7,4.09,7,10.71,0,14.8s-18.35,4.08-25.35,0-7-10.71,0-14.8S407.39,254.46,414.39,258.54Z" style="fill:#263238"></path><path d="M389,265.56c7-4.08,18.35-4.08,25.35,0a11.78,11.78,0,0,1,4.19,3.89,11.78,11.78,0,0,1-4.19,3.89c-7,4.08-18.35,4.08-25.35,0a11.78,11.78,0,0,1-4.19-3.89A11.78,11.78,0,0,1,389,265.56Z" style="fill:#f5f5f5"></path></g><g id="freepik--Plants--inject-60"><path d="M424.87,190.08l-16.7,11.43,15.79-6a28.94,28.94,0,0,1-3.12,12.13s-10.43,5.07-16.1,10.4l13.89-4.36a15.28,15.28,0,0,1-.43,7.25c-.09.32-.19.66-.29,1-.74,2.21-1.79,6.42-3.56,11.4h0a73.17,73.17,0,0,1-5.74,12.55,51.3,51.3,0,0,1-3.82,5.64c-.08.12-.17.23-.26.34q-3.87-2.58-8-5c-1.6-4.1-3.37-14.06-3.69-22.14-1.21-30.93,23.23-46.89,42.31-51.47C435.09,173.22,428.11,180.81,424.87,190.08Z" style="fill:#FEF2DC"></path><path d="M424.87,190.08l-16.7,11.43,15.79-6a28.94,28.94,0,0,1-3.12,12.13s-10.43,5.07-16.1,10.4l13.89-4.36a15.28,15.28,0,0,1-.43,7.25c-.09.32-.19.66-.29,1-.74,2.21-1.79,6.42-3.56,11.4h0a73.17,73.17,0,0,1-5.74,12.55,51.3,51.3,0,0,1-3.82,5.64c-.08.12-.17.23-.26.34q-3.87-2.58-8-5c-1.6-4.1-3.37-14.06-3.69-22.14-1.21-30.93,23.23-46.89,42.31-51.47C435.09,173.22,428.11,180.81,424.87,190.08Z" style="opacity:0.30000000000000004"></path><path d="M411.55,190.43a23,23,0,0,0-4.34,5.24,47.49,47.49,0,0,0-3.06,6.09,62.65,62.65,0,0,0-3.74,13.08,57.68,57.68,0,0,0,1.47,26.89h0a.44.44,0,1,1-.85.26h0A58.39,58.39,0,0,1,400,214.76a62.41,62.41,0,0,1,4-13.09,47.75,47.75,0,0,1,3.16-6.06A23.2,23.2,0,0,1,411.55,190.43Z" style="fill:#fafafa"></path><path d="M350.88,206.16l0,0c.38.49,6.65,8.42,15.84,23.78l16,3.08-11.92,1.71L376.89,245l15.73,3.76-12.42,1.63s3.06,12.17,11.75,17.47c4.8,2.92,7.17,3.42,8.68,2.07,1.05-.94,1.47-6.72,2.48-11.86s1.34-13.53-3.22-23.81a31.66,31.66,0,0,0-4.84-7.6C383.75,213.3,361.82,206.34,350.88,206.16Z" style="fill:#FEF2DC"></path><path d="M350.88,206.16l0,0c.38.49,6.65,8.42,15.84,23.78l16,3.08-11.92,1.71L376.89,245l15.73,3.76-12.42,1.63s3.06,12.17,11.75,17.47c4.8,2.92,7.17,3.42,8.68,2.07,1.05-.94,1.47-6.72,2.48-11.86s1.34-13.53-3.22-23.81a31.66,31.66,0,0,0-4.84-7.6C383.75,213.3,361.82,206.34,350.88,206.16Z" style="opacity:0.15"></path><path d="M396.51,239.56h0s0,0,0,0A48.86,48.86,0,0,1,399.8,253h0a144,144,0,0,1-.08,17.46,2.76,2.76,0,0,0,.91-.52c1.05-.94,1.47-6.72,2.48-11.86s1.34-13.53-3.22-23.81a31.66,31.66,0,0,0-4.84-7.6c-11.3-13.39-33.23-20.35-44.17-20.53,16.71,3.26,34.42,15,42.94,28.25A34.57,34.57,0,0,1,396.51,239.56Z" style="opacity:0.1"></path><path d="M367.55,211.94a65.63,65.63,0,0,1,21.89,16.13,43.6,43.6,0,0,1,7.31,11.61A41.77,41.77,0,0,1,399.84,253s0,.05,0,.05a.07.07,0,0,1-.05,0,53.59,53.59,0,0,0-3.82-13,49.94,49.94,0,0,0-7-11.5,57.55,57.55,0,0,0-9.83-9.33A76.28,76.28,0,0,0,367.51,212a0,0,0,0,1,0-.06A0,0,0,0,1,367.55,211.94Z" style="fill:#fafafa"></path><path d="M450.63,217.57h0a31.62,31.62,0,0,0-4.05,0,64.26,64.26,0,0,0-15.67,2.91c-1.89.58-3.79,1.26-5.66,2-.93.38-1.86.79-2.78,1.22a45,45,0,0,0-12.34,8.3,28.2,28.2,0,0,0-4.39,5.51c-.16.26-.33.51-.48.78h0c-.39.69-.74,1.36-1.07,2a38.79,38.79,0,0,0-4.54,18.83c-.09,4.62,1.19,10,2,10.89a2,2,0,0,0,.38.32c1.27.91,3.39.53,7.42-1.43,8.07-3.95,11.76-14.87,11.76-14.87l-10.78-2.45,14.12-2,6.17-8.53-10.34-2.48,14.31-1.4a206.53,206.53,0,0,1,15.88-19.59l0,0Z" style="fill:#FEF2DC"></path><path d="M446.58,217.53a64.26,64.26,0,0,0-15.67,2.91c-1.89.58-3.79,1.26-5.66,2-.93.38-1.86.79-2.78,1.22a45,45,0,0,0-12.34,8.3,28.2,28.2,0,0,0-4.39,5.51c-.16.26-.33.51-.48.78h0c-.39.69-.74,1.36-1.07,2a38.79,38.79,0,0,0-4.54,18.83c-.09,4.62,1.19,10,2,10.89a2,2,0,0,0,.38.32,2.6,2.6,0,0,0,.85.36c-.57-7.2,3.95-25.13,9.68-32.29,6-7.45,19.73-18,38-20.84l0,0A32.87,32.87,0,0,0,446.58,217.53Z" style="opacity:0.05"></path><path d="M402.87,270.72a61.57,61.57,0,0,1,1.9-15.75,51.24,51.24,0,0,1,6.08-14.7,35.13,35.13,0,0,1,5.13-6.14,50.81,50.81,0,0,1,6.14-5.12,59,59,0,0,1,14.07-7.41,0,0,0,0,1,.05,0,0,0,0,0,1,0,.05,78.21,78.21,0,0,0-13.58,8,66.11,66.11,0,0,0-6.05,5,35.22,35.22,0,0,0-5.15,5.9,50.78,50.78,0,0,0-6.24,14.43A61.53,61.53,0,0,0,403,270.72a0,0,0,0,1,0,0A0,0,0,0,1,402.87,270.72Z" style="fill:#fafafa"></path></g></g></g></svg>